<?xml version="1.0" encoding="UTF-8" standalone="no"?> <svg xmlns:dc="http://purl.org/dc/elements/1.1/" xmlns:cc="http://creativecommons.org/ns#" xmlns:rdf="http://www.w3.org/1999/02/22-rdf-syntax-ns#" xmlns:svg="http://www.w3.org/2000/svg" xmlns="http://www.w3.org/2000/svg" xmlns:sodipodi="http://sodipodi.sourceforge.net/DTD/sodipodi-0.dtd" xmlns:inkscape="http://www.inkscape.org/namespaces/inkscape" width="419.63229mm" height="150mm" viewBox="0 0 419.6323 150" version="1.1" id="svg10998" inkscape:version="1.0.1 (3bc2e813f5, 2020-09-07)" sodipodi:docname="mir_logo_en_short.svg"><defs id="defs10992"><rect x="-5890.7207" y="4075.6516" width="355.59998" height="133.35001" id="rect10922"></rect><rect x="-5890.7207" y="4075.6516" width="355.59998" height="133.35001" id="rect10987"></rect><rect x="-5890.7207" y="4075.6516" width="355.59998" height="133.35001" id="rect10908"></rect><rect x="-5890.7207" y="4075.6516" width="355.59998" height="133.35001" id="rect11600"></rect><rect x="-5890.7207" y="4075.6516" width="355.59998" height="133.35001" id="rect10930"></rect><rect x="-5890.7207" y="4075.6516" width="355.59998" height="133.35001" id="rect11645"></rect></defs><metadata id="metadata10995"></metadata><g inkscape:label="Слой 1" inkscape:groupmode="layer" id="layer1" transform="translate(421.14157,-226.89558)"><path id="rect10932" style="fill:#ffffff;fill-opacity:1;fill-rule:evenodd;stroke-width:8.99885;stroke-linecap:round;stroke-linejoin:round;paint-order:markers stroke fill;stop-color:#000000" d="m -421.14157,226.89558 h 150 v 150 h -150 z"></path><path d="m -209.46428,302.01748 v -40 h 8.651 8.653 l 12.82,14.808 c 7.052,8.145 12.851,14.809 12.887,14.809 0,0 5.831,-6.664 12.881,-14.809 l 12.81501,-14.808 h 8.65299 8.65301 v 40 40 h -9.92801 -9.93 v -24.917 c 0,-13.706 0,-24.901 -0.10001,-24.88 -0.1,0 -4.91199,5.642 -10.79598,12.492 l -10.69901,12.454 h -1.554 -1.553 l -10.715,-12.477 c -5.892,-6.862 -10.751,-12.479 -10.799,-12.482 0,0 -0.1,11.203 -0.1,24.902 v 24.908 h -9.929 -9.928 z" id="path10958" style="fill:#ffffff;fill-opacity:1;stroke-width:0.133901" sodipodi:nodetypes="ccccssscccccccssscccssscccc"></path><path d="m -88.097266,262.01748 v 80 h -19.861004 v -80 z" style="font-style:normal;font-variant:normal;font-weight:bold;font-stretch:normal;font-size:105.833px;line-height:1.25;font-family:'Yandex Sans Text';-inkscape-font-specification:'Yandex Sans Text, Bold';font-variant-ligatures:normal;font-variant-caps:normal;font-variant-numeric:normal;font-variant-east-asian:normal;white-space:pre;fill:#ffffff;fill-opacity:1;stroke-width:1.11279" id="path10960"></path><path d="m -52.752266,276.54248 v 21.341 h 11.036985 q 8.195998,0 12.292012,-2.346 4.084982,-2.347 4.084982,-8.38 0,-5.922 -4.084982,-8.268 -4.096014,-2.347 -12.536011,-2.347 z m 8.805992,35.084 h -8.805992 v 30.391 h -19.85201 v -80 h 30.644996 q 18.364015,0 27.303995,5.922 9.0470032,5.922 9.0470032,19.218 0,9.385 -4.5839852,14.748 -4.463018,5.252 -12.415018,7.598 l 21.0980082,32.514 H -24.338268 Z" style="font-style:normal;font-variant:normal;font-weight:bold;font-stretch:normal;font-size:105.833px;line-height:1.25;font-family:'Yandex Sans Text';-inkscape-font-specification:'Yandex Sans Text, Bold';font-variant-ligatures:normal;font-variant-caps:normal;font-variant-numeric:normal;font-variant-east-asian:normal;white-space:pre;fill:#ffffff;fill-opacity:1;stroke-width:1.11252" id="path10962"></path></g></svg> 