<?xml version="1.0" encoding="UTF-8" standalone="no"?> <svg xmlns:dc="http://purl.org/dc/elements/1.1/" xmlns:cc="http://creativecommons.org/ns#" xmlns:rdf="http://www.w3.org/1999/02/22-rdf-syntax-ns#" xmlns:svg="http://www.w3.org/2000/svg" xmlns="http://www.w3.org/2000/svg" xmlns:sodipodi="http://sodipodi.sourceforge.net/DTD/sodipodi-0.dtd" xmlns:inkscape="http://www.inkscape.org/namespaces/inkscape" width="453.49579mm" height="150mm" viewBox="0 0 453.49579 150" version="1.1" id="svg10998" inkscape:version="1.0.1 (3bc2e813f5, 2020-09-07)" sodipodi:docname="mir_logo_ru_short.svg"><defs id="defs10992"><rect x="-5890.7207" y="4075.6516" width="355.59998" height="133.35001" id="rect10922"></rect><rect x="-5890.7207" y="4075.6516" width="355.59998" height="133.35001" id="rect10987"></rect><rect x="-5890.7207" y="4075.6516" width="355.59998" height="133.35001" id="rect10908"></rect><rect x="-5890.7207" y="4075.6516" width="355.59998" height="133.35001" id="rect11600"></rect></defs><metadata id="metadata10995"></metadata><g inkscape:label="Слой 1" inkscape:groupmode="layer" id="layer1" transform="translate(311.64093,-198.49405)"><path id="rect10791" style="fill:#1a1a1a;fill-opacity:1;fill-rule:evenodd;stroke-width:8.99885;stroke-linecap:round;stroke-linejoin:round;paint-order:markers stroke fill;stop-color:#000000" d="m -311.64093,198.49405 h 150 v 150 h -150 z"></path><g aria-label="МИР" transform="matrix(2.1114666,0,0,2.1114666,12329.971,-8394.5305)" id="text10906" style="font-style:normal;font-weight:normal;font-size:52.9167px;line-height:1.25;font-family:sans-serif;white-space:pre;shape-inside:url(#rect10908);fill:#1a1a1a;fill-opacity:1;stroke:none"><path d="m -5879.8199,4098.6006 v 25.5587 h -7.4083 v -37.8883 h 10.9008 l 8.7842,23.0716 9.8425,-23.0716 h 9.9484 v 37.8883 h -8.4667 v -25.2942 l -8.255,19.4734 h -7.3554 z" style="font-style:normal;font-variant:normal;font-weight:bold;font-stretch:normal;font-family:'Yandex Sans Text';-inkscape-font-specification:'Yandex Sans Text Bold';fill:#1a1a1a;fill-opacity:1" id="path840"></path><path d="m -5840.7674,4124.1593 v -37.8883 h 8.4666 v 25.5587 l 16.8805,-25.5587 h 8.5196 v 37.8883 h -8.5196 v -25.5058 l -16.8805,25.5058 z" style="font-style:normal;font-variant:normal;font-weight:bold;font-stretch:normal;font-family:'Yandex Sans Text';-inkscape-font-specification:'Yandex Sans Text Bold';fill:#1a1a1a;fill-opacity:1" id="path842"></path><path d="m -5791.4491,4093.1501 v 11.3771 h 3.2279 q 3.5984,0 5.5034,-1.27 1.905,-1.27 1.905,-4.4979 0,-5.6092 -7.4084,-5.6092 z m 0,18.2563 v 12.7529 h -8.4667 v -37.8883 h 11.6946 q 3.81,0 6.7204,0.6879 2.9634,0.6879 4.9742,2.1696 2.0638,1.4287 3.1221,3.757 1.0583,2.2755 1.0583,5.5034 0,3.3867 -1.1112,5.8737 -1.1113,2.4342 -3.175,4.0217 -2.0638,1.5875 -5.0271,2.3813 -2.9104,0.7408 -6.5617,0.7408 z" style="font-style:normal;font-variant:normal;font-weight:bold;font-stretch:normal;font-family:'Yandex Sans Text';-inkscape-font-specification:'Yandex Sans Text Bold';fill:#1a1a1a;fill-opacity:1" id="path844"></path></g></g></svg> 