<?xml version="1.0" encoding="UTF-8" standalone="no"?> <svg xmlns:dc="http://purl.org/dc/elements/1.1/" xmlns:cc="http://creativecommons.org/ns#" xmlns:rdf="http://www.w3.org/1999/02/22-rdf-syntax-ns#" xmlns:svg="http://www.w3.org/2000/svg" xmlns="http://www.w3.org/2000/svg" xmlns:sodipodi="http://sodipodi.sourceforge.net/DTD/sodipodi-0.dtd" xmlns:inkscape="http://www.inkscape.org/namespaces/inkscape" width="727.67883mm" height="150.00005mm" viewBox="0 0 727.67883 150.00005" version="1.1" id="svg10998" inkscape:version="1.0.1 (3bc2e813f5, 2020-09-07)" sodipodi:docname="mir_logo_ru_full.svg"><defs id="defs10992"><rect x="-5890.7207" y="4075.6516" width="355.59998" height="133.35001" id="rect10922"></rect><rect x="-5890.7207" y="4075.6516" width="355.59998" height="133.35001" id="rect10987"></rect></defs><metadata id="metadata10995"></metadata><g inkscape:label="Слой 1" inkscape:groupmode="layer" id="layer1" transform="translate(396.34525,21.327381)"><path id="rect10916" style="fill:#1a1a1a;fill-opacity:1;fill-rule:evenodd;stroke-width:8.99885;stroke-linecap:round;stroke-linejoin:round;paint-order:markers stroke fill;stop-color:#000000" d="m -396.34525,-21.327341 h 150 V 128.67266 h -150 z"></path><g aria-label="Машины Интеллектуальных Расчётов" transform="matrix(2.2251713,0,0,2.2251713,12914.882,-9093.1775)" id="text10920" style="font-style:normal;font-weight:normal;font-size:25.0616px;line-height:0.95;font-family:sans-serif;white-space:pre;shape-inside:url(#rect10922);fill:#1a1a1a;fill-opacity:1;stroke:none"><path d="m -5885.558,4082.7615 v 12.1047 h -3.5086 v -17.9441 h 5.1627 l 4.1602,10.9269 4.6614,-10.9269 h 4.7116 v 17.9441 h -4.0098 v -11.9794 l -3.9096,9.2227 h -3.4836 z" style="font-style:normal;font-variant:normal;font-weight:bold;font-stretch:normal;font-size:25.0616px;font-family:'Yandex Sans Text';-inkscape-font-specification:'Yandex Sans Text Bold';fill:#1a1a1a;fill-opacity:1" id="path846"></path><path d="m -5862.5264,4092.4603 q 0.9523,0 1.5287,-0.4511 0.5764,-0.4762 0.8772,-1.0024 v -1.9047 h -1.2531 q -1.4035,0 -2.0551,0.5012 -0.6516,0.4762 -0.6516,1.2781 0,0.777 0.4261,1.1779 0.426,0.401 1.1278,0.401 z m 2.7818,2.4059 q -0.05,-0.2756 -0.1253,-0.7017 -0.05,-0.4511 -0.1003,-0.8771 -0.5012,0.7267 -1.4285,1.2781 -0.9022,0.5514 -2.3558,0.5514 -0.8019,0 -1.5538,-0.2256 -0.7518,-0.2256 -1.3282,-0.6767 -0.5765,-0.4761 -0.9273,-1.1779 -0.3509,-0.7017 -0.3509,-1.654 0,-2.0551 1.5538,-3.233 1.5789,-1.1779 4.9121,-1.1779 h 1.3283 v -0.3258 q 0,-1.2029 -0.6266,-1.6039 -0.6265,-0.401 -1.7543,-0.401 -1.1278,0 -2.1302,0.3258 -0.9774,0.3007 -1.8295,0.7268 l -0.7519,-2.9823 q 0.9023,-0.4261 2.2806,-0.7519 1.4035,-0.3508 3.0074,-0.3508 1.3032,0 2.3558,0.2756 1.0526,0.2506 1.8045,0.8271 0.7518,0.5764 1.1528,1.5037 0.401,0.9022 0.401,2.1803 v 6.3657 q 0,0.2255 0,0.5263 0.025,0.2756 0.025,0.5764 0.025,0.3007 0.025,0.5764 0.025,0.2506 0.05,0.426 z" style="font-style:normal;font-variant:normal;font-weight:bold;font-stretch:normal;font-size:25.0616px;font-family:'Yandex Sans Text';-inkscape-font-specification:'Yandex Sans Text Bold';fill:#1a1a1a;fill-opacity:1" id="path848"></path><path d="m -5853.5544,4081.8593 h 3.8845 v 9.9745 h 2.9323 v -9.9745 h 3.8845 v 9.9745 h 2.9072 v -9.9745 h 3.9096 v 13.0069 h -17.5181 z" style="font-style:normal;font-variant:normal;font-weight:bold;font-stretch:normal;font-size:25.0616px;font-family:'Yandex Sans Text';-inkscape-font-specification:'Yandex Sans Text Bold';fill:#1a1a1a;fill-opacity:1" id="path850"></path><path d="m -5833.2295,4081.8593 h 3.8345 v 7.9696 l 5.4884,-7.9696 h 3.7342 v 13.0069 h -3.8093 v -7.9696 l -5.4635,7.9696 h -3.7843 z" style="font-style:normal;font-variant:normal;font-weight:bold;font-stretch:normal;font-size:25.0616px;font-family:'Yandex Sans Text';-inkscape-font-specification:'Yandex Sans Text Bold';fill:#1a1a1a;fill-opacity:1" id="path852"></path><path d="m -5808.8947,4089.7787 h -4.5862 v 5.0875 h -3.8846 v -13.0069 h 3.8846 v 4.887 h 4.5862 v -4.887 h 3.8846 v 13.0069 h -3.8846 z" style="font-style:normal;font-variant:normal;font-weight:bold;font-stretch:normal;font-size:25.0616px;font-family:'Yandex Sans Text';-inkscape-font-specification:'Yandex Sans Text Bold';fill:#1a1a1a;fill-opacity:1" id="path854"></path><path d="m -5786.1387,4094.8662 h -3.8846 v -13.0069 h 3.8846 z m -12.18,-6.3656 v 3.5337 h 1.3283 q 0.9022,0 1.4536,-0.401 0.5764,-0.4261 0.5764,-1.3784 0,-1.7543 -2.03,-1.7543 z m -3.8845,-6.6413 h 3.8845 v 3.7843 h 1.3533 q 2.8821,0 4.461,1.1528 1.5789,1.1528 1.5789,3.3583 0,1.1528 -0.4511,2.0299 -0.4511,0.8772 -1.2531,1.4787 -0.802,0.6015 -1.9297,0.9022 -1.1028,0.3007 -2.431,0.3007 h -5.2128 z" style="font-style:normal;font-variant:normal;font-weight:bold;font-stretch:normal;font-size:25.0616px;font-family:'Yandex Sans Text';-inkscape-font-specification:'Yandex Sans Text Bold';fill:#1a1a1a;fill-opacity:1" id="path856"></path><path d="M -5889.0666,4119.4741 V 4101.53 h 4.0098 v 12.1048 l 7.9947,-12.1048 h 4.0349 v 17.9441 h -4.0349 v -12.0796 l -7.9947,12.0796 z" style="font-style:normal;font-variant:normal;font-weight:bold;font-stretch:normal;font-size:25.0616px;font-family:'Yandex Sans Text';-inkscape-font-specification:'Yandex Sans Text Bold';fill:#1a1a1a;fill-opacity:1" id="path858"></path><path d="m -5861.4989,4114.3866 h -4.5863 v 5.0875 h -3.8845 v -13.0069 h 3.8845 v 4.887 h 4.5863 v -4.887 h 3.8846 v 13.0069 h -3.8846 z" style="font-style:normal;font-variant:normal;font-weight:bold;font-stretch:normal;font-size:25.0616px;font-family:'Yandex Sans Text';-inkscape-font-specification:'Yandex Sans Text Bold';fill:#1a1a1a;fill-opacity:1" id="path860"></path><path d="m -5847.9656,4109.4996 v 9.9745 h -3.8846 v -9.9745 h -3.7091 v -3.0324 h 11.378 v 3.0324 z" style="font-style:normal;font-variant:normal;font-weight:bold;font-stretch:normal;font-size:25.0616px;font-family:'Yandex Sans Text';-inkscape-font-specification:'Yandex Sans Text Bold';fill:#1a1a1a;fill-opacity:1" id="path862"></path><path d="m -5836.2369,4108.9984 q -2.2304,0 -2.7317,2.4811 h 4.9873 q 0.025,-1.228 -0.5764,-1.8546 -0.5764,-0.6265 -1.6792,-0.6265 z m 5.6138,9.5735 q -0.5012,0.3258 -1.2029,0.5764 -0.6015,0.2256 -1.5037,0.401 -0.9022,0.1755 -2.1553,0.1755 -3.8595,0 -5.7141,-1.7794 -1.8545,-1.7794 -1.8545,-4.9873 0,-1.5788 0.4762,-2.8319 0.5012,-1.2531 1.3783,-2.1052 0.8772,-0.8772 2.1303,-1.3283 1.2531,-0.4761 2.7568,-0.4761 1.5287,0 2.7818,0.5012 1.2531,0.4762 2.0801,1.4536 0.827,0.9774 1.1528,2.456 0.3258,1.4536 0.025,3.4334 h -8.7465 q 0.2005,1.3283 1.0526,2.005 0.8521,0.6516 2.6565,0.6516 0.9273,0 1.6541,-0.1253 0.7518,-0.1504 1.2531,-0.3509 0.6014,-0.2256 1.0275,-0.5012 z" style="font-style:normal;font-variant:normal;font-weight:bold;font-stretch:normal;font-size:25.0616px;font-family:'Yandex Sans Text';-inkscape-font-specification:'Yandex Sans Text Bold';fill:#1a1a1a;fill-opacity:1" id="path864"></path><path d="m -5823.4304,4115.2638 q -0.4511,2.4811 -1.6792,3.4084 -1.2029,0.9273 -2.6064,0.9022 -0.5012,0 -1.0275,-0.1003 l -0.401,-3.283 q 0.4762,0.05 0.8772,0 0.401,-0.05 0.7017,-0.2506 0.3007,-0.2256 0.5012,-0.6015 0.2005,-0.401 0.3258,-1.0275 0.2506,-1.203 0.3008,-3.2079 0.05,-2.005 0.05,-4.6364 h 10.2001 v 13.0069 h -3.8846 v -9.9745 h -2.8821 q -0.05,1.7042 -0.1503,3.1578 -0.1003,1.4285 -0.3258,2.6064 z" style="font-style:normal;font-variant:normal;font-weight:bold;font-stretch:normal;font-size:25.0616px;font-family:'Yandex Sans Text';-inkscape-font-specification:'Yandex Sans Text Bold';fill:#1a1a1a;fill-opacity:1" id="path866"></path><path d="m -5808.8196,4115.2638 q -0.4511,2.4811 -1.6791,3.4084 -1.203,0.9273 -2.6064,0.9022 -0.5012,0 -1.0275,-0.1003 l -0.401,-3.283 q 0.4762,0.05 0.8771,0 0.401,-0.05 0.7018,-0.2506 0.3007,-0.2256 0.5012,-0.6015 0.2005,-0.401 0.3258,-1.0275 0.2506,-1.203 0.3007,-3.2079 0.05,-2.005 0.05,-4.6364 h 10.2 v 13.0069 h -3.8845 v -9.9745 h -2.8821 q -0.05,1.7042 -0.1504,3.1578 -0.1002,1.4285 -0.3258,2.6064 z" style="font-style:normal;font-variant:normal;font-weight:bold;font-stretch:normal;font-size:25.0616px;font-family:'Yandex Sans Text';-inkscape-font-specification:'Yandex Sans Text Bold';fill:#1a1a1a;fill-opacity:1" id="path868"></path><path d="m -5792.6298,4108.9984 q -2.2305,0 -2.7317,2.4811 h 4.9872 q 0.025,-1.228 -0.5764,-1.8546 -0.5764,-0.6265 -1.6791,-0.6265 z m 5.6138,9.5735 q -0.5013,0.3258 -1.203,0.5764 -0.6015,0.2256 -1.5037,0.401 -0.9022,0.1755 -2.1553,0.1755 -3.8595,0 -5.714,-1.7794 -1.8546,-1.7794 -1.8546,-4.9873 0,-1.5788 0.4762,-2.8319 0.5012,-1.2531 1.3784,-2.1052 0.8771,-0.8772 2.1302,-1.3283 1.2531,-0.4761 2.7568,-0.4761 1.5288,0 2.7818,0.5012 1.2531,0.4762 2.0801,1.4536 0.8271,0.9774 1.1529,2.456 0.3258,1.4536 0.025,3.4334 h -8.7465 q 0.2005,1.3283 1.0526,2.005 0.8521,0.6516 2.6566,0.6516 0.9272,0 1.654,-0.1253 0.7519,-0.1504 1.2531,-0.3509 0.6015,-0.2256 1.0275,-0.5012 z" style="font-style:normal;font-variant:normal;font-weight:bold;font-stretch:normal;font-size:25.0616px;font-family:'Yandex Sans Text';-inkscape-font-specification:'Yandex Sans Text Bold';fill:#1a1a1a;fill-opacity:1" id="path870"></path><path d="m -5779.2971,4114.5621 h -1.0776 v 4.912 h -3.8846 v -13.0069 h 3.8846 v 5.0875 h 1.1027 l 3.6089,-5.0875 h 3.8093 l -4.3356,6.115 4.7115,6.8919 h -4.511 z" style="font-style:normal;font-variant:normal;font-weight:bold;font-stretch:normal;font-size:25.0616px;font-family:'Yandex Sans Text';-inkscape-font-specification:'Yandex Sans Text Bold';fill:#1a1a1a;fill-opacity:1" id="path872"></path><path d="m -5763.2326,4109.4996 v 9.9745 h -3.8845 v -9.9745 h -3.7092 v -3.0324 h 11.378 v 3.0324 z" style="font-style:normal;font-variant:normal;font-weight:bold;font-stretch:normal;font-size:25.0616px;font-family:'Yandex Sans Text';-inkscape-font-specification:'Yandex Sans Text Bold';fill:#1a1a1a;fill-opacity:1" id="path874"></path><path d="m -5754.5363,4124.1607 q -0.7268,0 -1.5538,-0.1504 -0.802,-0.1253 -1.228,-0.3258 l 0.4511,-2.9823 q 0.4511,0.1754 0.9273,0.2756 0.4761,0.1003 1.1027,0.1003 0.6015,0 1.0526,-0.2506 0.4761,-0.2506 0.7518,-0.6767 l -5.1376,-13.6836 h 4.085 l 2.9824,8.8718 2.857,-8.8718 h 3.5587 l -4.4609,12.8566 q -0.4261,1.1779 -0.9022,2.0801 -0.4512,0.9022 -1.0777,1.5037 -0.6015,0.6265 -1.4536,0.9273 -0.827,0.3258 -1.9548,0.3258 z" style="font-style:normal;font-variant:normal;font-weight:bold;font-stretch:normal;font-size:25.0616px;font-family:'Yandex Sans Text';-inkscape-font-specification:'Yandex Sans Text Bold';fill:#1a1a1a;fill-opacity:1" id="path876"></path><path d="m -5738.4718,4117.0682 q 0.9523,0 1.5287,-0.4511 0.5764,-0.4761 0.8772,-1.0024 v -1.9047 h -1.2531 q -1.4035,0 -2.0551,0.5012 -0.6516,0.4762 -0.6516,1.2782 0,0.7769 0.4261,1.1778 0.426,0.401 1.1278,0.401 z m 2.7818,2.4059 q -0.05,-0.2756 -0.1253,-0.7017 -0.05,-0.4511 -0.1003,-0.8771 -0.5012,0.7268 -1.4285,1.2781 -0.9022,0.5514 -2.3558,0.5514 -0.8019,0 -1.5538,-0.2256 -0.7518,-0.2255 -1.3283,-0.6767 -0.5764,-0.4761 -0.9272,-1.1778 -0.3509,-0.7018 -0.3509,-1.6541 0,-2.0551 1.5538,-3.233 1.5789,-1.1779 4.9121,-1.1779 h 1.3283 v -0.3258 q 0,-1.2029 -0.6266,-1.6039 -0.6265,-0.401 -1.7543,-0.401 -1.1278,0 -2.1302,0.3258 -0.9774,0.3008 -1.8295,0.7268 l -0.7519,-2.9823 q 0.9022,-0.4261 2.2806,-0.7519 1.4035,-0.3508 3.0074,-0.3508 1.3032,0 2.3558,0.2756 1.0526,0.2507 1.8045,0.8271 0.7518,0.5764 1.1528,1.5037 0.401,0.9022 0.401,2.1803 v 6.3657 q 0,0.2255 0,0.5263 0.025,0.2756 0.025,0.5764 0.025,0.3007 0.025,0.5764 0.025,0.2506 0.05,0.426 z" style="font-style:normal;font-variant:normal;font-weight:bold;font-stretch:normal;font-size:25.0616px;font-family:'Yandex Sans Text';-inkscape-font-specification:'Yandex Sans Text Bold';fill:#1a1a1a;fill-opacity:1" id="path878"></path><path d="m -5724.9386,4115.2638 q -0.4511,2.4811 -1.6791,3.4084 -1.203,0.9273 -2.6064,0.9022 -0.5012,0 -1.0275,-0.1003 l -0.401,-3.283 q 0.4761,0.05 0.8771,0 0.401,-0.05 0.7018,-0.2506 0.3007,-0.2256 0.5012,-0.6015 0.2005,-0.401 0.3258,-1.0275 0.2506,-1.203 0.3007,-3.2079 0.05,-2.005 0.05,-4.6364 h 10.2001 v 13.0069 h -3.8845 v -9.9745 h -2.8821 q -0.05,1.7042 -0.1504,3.1578 -0.1002,1.4285 -0.3258,2.6064 z" style="font-style:normal;font-variant:normal;font-weight:bold;font-stretch:normal;font-size:25.0616px;font-family:'Yandex Sans Text';-inkscape-font-specification:'Yandex Sans Text Bold';fill:#1a1a1a;fill-opacity:1" id="path880"></path><path d="m -5711.0044,4113.1085 v 3.5337 h 1.5789 q 0.9022,0 1.4536,-0.401 0.5764,-0.426 0.5764,-1.3784 0,-1.7543 -2.03,-1.7543 z m -3.8845,-6.6413 h 3.8845 v 3.7843 h 1.604 q 2.8821,0 4.4609,1.1528 1.5789,1.1528 1.5789,3.3583 0,1.1528 -0.4511,2.03 -0.4511,0.8771 -1.2531,1.4786 -0.8019,0.6015 -1.9297,0.9022 -1.1027,0.3007 -2.431,0.3007 h -5.4634 z" style="font-style:normal;font-variant:normal;font-weight:bold;font-stretch:normal;font-size:25.0616px;font-family:'Yandex Sans Text';-inkscape-font-specification:'Yandex Sans Text Bold';fill:#1a1a1a;fill-opacity:1" id="path882"></path><path d="m -5693.0102,4114.3866 h -4.5862 v 5.0875 h -3.8846 v -13.0069 h 3.8846 v 4.887 h 4.5862 v -4.887 h 3.8846 v 13.0069 h -3.8846 z" style="font-style:normal;font-variant:normal;font-weight:bold;font-stretch:normal;font-size:25.0616px;font-family:'Yandex Sans Text';-inkscape-font-specification:'Yandex Sans Text Bold';fill:#1a1a1a;fill-opacity:1" id="path884"></path><path d="m -5670.2542,4119.4741 h -3.8846 v -13.0069 h 3.8846 z m -12.18,-6.3656 v 3.5337 h 1.3283 q 0.9022,0 1.4536,-0.401 0.5764,-0.426 0.5764,-1.3784 0,-1.7543 -2.03,-1.7543 z m -3.8845,-6.6413 h 3.8845 v 3.7843 h 1.3534 q 2.882,0 4.4609,1.1528 1.5789,1.1528 1.5789,3.3583 0,1.1528 -0.4511,2.03 -0.4511,0.8771 -1.2531,1.4786 -0.802,0.6015 -1.9297,0.9022 -1.1027,0.3007 -2.431,0.3007 h -5.2128 z" style="font-style:normal;font-variant:normal;font-weight:bold;font-stretch:normal;font-size:25.0616px;font-family:'Yandex Sans Text';-inkscape-font-specification:'Yandex Sans Text Bold';fill:#1a1a1a;fill-opacity:1" id="path886"></path><path d="m -5662.3348,4115.2387 -2.7568,4.2354 h -3.5838 l 4.461,-6.6914 -4.1101,-6.3155 h 4.2605 l 2.6064,3.9597 2.3307,-3.9597 h 3.5838 l -4.0349,6.4157 4.3357,6.5912 h -4.2856 z" style="font-style:normal;font-variant:normal;font-weight:bold;font-stretch:normal;font-size:25.0616px;font-family:'Yandex Sans Text';-inkscape-font-specification:'Yandex Sans Text Bold';fill:#1a1a1a;fill-opacity:1" id="path888"></path><path d="m -5885.0568,4129.396 v 5.3882 h 1.5288 q 1.7042,0 2.6064,-0.6015 0.9022,-0.6015 0.9022,-2.1302 0,-2.6565 -3.5086,-2.6565 z m 0,8.6462 v 6.0399 h -4.0098 v -17.9441 h 5.5386 q 1.8044,0 3.1828,0.3258 1.4034,0.3258 2.3558,1.0275 0.9774,0.6766 1.4786,1.7794 0.5013,1.0776 0.5013,2.6064 0,1.6039 -0.5263,2.7818 -0.5263,1.1528 -1.5037,1.9047 -0.9774,0.7518 -2.3809,1.1277 -1.3784,0.3509 -3.1076,0.3509 z" style="font-style:normal;font-variant:normal;font-weight:bold;font-stretch:normal;font-size:25.0616px;font-family:'Yandex Sans Text';-inkscape-font-specification:'Yandex Sans Text Bold';fill:#1a1a1a;fill-opacity:1" id="path890"></path><path d="m -5869.4685,4141.6761 q 0.9523,0 1.5287,-0.4511 0.5765,-0.4761 0.8772,-1.0024 v -1.9047 h -1.2531 q -1.4034,0 -2.055,0.5012 -0.6516,0.4762 -0.6516,1.2782 0,0.7769 0.426,1.1779 0.4261,0.4009 1.1278,0.4009 z m 2.7818,2.406 q -0.05,-0.2757 -0.1253,-0.7018 -0.05,-0.4511 -0.1002,-0.8771 -0.5013,0.7268 -1.4285,1.2781 -0.9023,0.5514 -2.3558,0.5514 -0.802,0 -1.5539,-0.2256 -0.7518,-0.2255 -1.3282,-0.6766 -0.5764,-0.4762 -0.9273,-1.1779 -0.3509,-0.7018 -0.3509,-1.6541 0,-2.0551 1.5539,-3.233 1.5788,-1.1778 4.912,-1.1778 h 1.3283 v -0.3258 q 0,-1.203 -0.6265,-1.604 -0.6266,-0.401 -1.7544,-0.401 -1.1277,0 -2.1302,0.3258 -0.9774,0.3008 -1.8295,0.7268 l -0.7518,-2.9823 q 0.9022,-0.4261 2.2806,-0.7519 1.4034,-0.3508 3.0074,-0.3508 1.3032,0 2.3558,0.2756 1.0525,0.2507 1.8044,0.8271 0.7518,0.5764 1.1528,1.5037 0.401,0.9022 0.401,2.1803 v 6.3657 q 0,0.2255 0,0.5263 0.025,0.2757 0.025,0.5764 0.025,0.3007 0.025,0.5764 0.025,0.2506 0.05,0.4261 z" style="font-style:normal;font-variant:normal;font-weight:bold;font-stretch:normal;font-size:25.0616px;font-family:'Yandex Sans Text';-inkscape-font-specification:'Yandex Sans Text Bold';fill:#1a1a1a;fill-opacity:1" id="path892"></path><path d="m -5853.8301,4144.3327 q -1.6791,0 -3.0324,-0.4511 -1.3534,-0.4762 -2.3308,-1.3283 -0.9523,-0.8772 -1.4786,-2.1302 -0.5012,-1.2531 -0.5012,-2.8571 0,-1.5788 0.5012,-2.8319 0.5263,-1.2531 1.4536,-2.1052 0.9523,-0.8772 2.2305,-1.3283 1.3032,-0.4761 2.882,-0.4761 1.5037,0 2.5313,0.3258 1.0525,0.3258 1.629,0.7268 l -0.7268,2.8319 q -0.6516,-0.426 -1.4035,-0.6265 -0.7518,-0.2256 -1.9047,-0.2256 -1.4535,0 -2.3307,0.9273 -0.8521,0.9022 -0.8521,2.7818 0,1.8797 0.9022,2.8069 0.9023,0.9273 2.6064,0.9273 1.0777,0 1.7794,-0.2506 0.7017,-0.2506 1.3032,-0.6015 l 0.7017,2.8821 q -0.5764,0.401 -1.5538,0.7017 -0.9523,0.3008 -2.4059,0.3008 z" style="font-style:normal;font-variant:normal;font-weight:bold;font-stretch:normal;font-size:25.0616px;font-family:'Yandex Sans Text';-inkscape-font-specification:'Yandex Sans Text Bold';fill:#1a1a1a;fill-opacity:1" id="path894"></path><path d="m -5839.7204,4144.0821 v -5.5637 q -0.5263,0.6516 -1.5288,1.0776 -1.0024,0.4261 -2.2555,0.4261 -2.03,0 -3.1828,-1.203 -1.1278,-1.228 -1.1278,-3.684 v -4.06 h 3.8845 v 3.8093 q 0,1.0025 0.4511,1.4536 0.4762,0.4511 1.3534,0.4511 1.7793,0 2.4059,-1.3032 v -4.4108 h 3.8845 v 13.007 z" style="font-style:normal;font-variant:normal;font-weight:bold;font-stretch:normal;font-size:25.0616px;font-family:'Yandex Sans Text';-inkscape-font-specification:'Yandex Sans Text Bold';fill:#1a1a1a;fill-opacity:1" id="path896"></path><path d="m -5826.8889,4133.6063 q -2.2305,0 -2.7317,2.4811 h 4.9872 q 0.025,-1.228 -0.5764,-1.8546 -0.5764,-0.6265 -1.6791,-0.6265 z m 5.6138,9.5735 q -0.5012,0.3258 -1.203,0.5765 -0.6014,0.2255 -1.5037,0.4009 -0.9022,0.1755 -2.1552,0.1755 -3.8595,0 -5.7141,-1.7794 -1.8546,-1.7794 -1.8546,-4.9873 0,-1.5788 0.4762,-2.8319 0.5013,-1.2531 1.3784,-2.1052 0.8772,-0.8772 2.1302,-1.3283 1.2531,-0.4761 2.7568,-0.4761 1.5288,0 2.7819,0.5012 1.253,0.4762 2.0801,1.4536 0.827,0.9774 1.1528,2.456 0.3258,1.4536 0.025,3.4335 h -8.7465 q 0.2005,1.3282 1.0526,2.0049 0.852,0.6516 2.6565,0.6516 0.9273,0 1.654,-0.1253 0.7519,-0.1504 1.2531,-0.3509 0.6015,-0.2255 1.0276,-0.5012 z m -2.9071,-13.5082 q -0.9524,0 -1.604,-0.6265 -0.6265,-0.6265 -0.6265,-1.4786 0,-0.9023 0.6265,-1.5037 0.6516,-0.6266 1.604,-0.6266 0.426,0 0.827,0.1755 0.401,0.1503 0.7017,0.4511 0.3008,0.2756 0.4762,0.6766 0.2005,0.376 0.2005,0.8271 0,0.426 -0.2005,0.8019 -0.1754,0.376 -0.4762,0.6767 -0.3007,0.2757 -0.7017,0.4511 -0.401,0.1754 -0.827,0.1754 z m -5.7141,0 q -0.4511,0 -0.8521,-0.1754 -0.3759,-0.1754 -0.6766,-0.4511 -0.2757,-0.3007 -0.4512,-0.6767 -0.1754,-0.3759 -0.1754,-0.8019 0,-0.9023 0.6266,-1.5037 0.6516,-0.6266 1.5287,-0.6266 0.9273,0 1.5789,0.6266 0.6767,0.6014 0.6767,1.5037 0,0.8521 -0.6767,1.4786 -0.6516,0.6265 -1.5789,0.6265 z" style="font-style:normal;font-variant:normal;font-weight:bold;font-stretch:normal;font-size:25.0616px;font-family:'Yandex Sans Text';-inkscape-font-specification:'Yandex Sans Text Bold';fill:#1a1a1a;fill-opacity:1" id="path898"></path><path d="m -5811.9272,4134.1075 v 9.9746 h -3.8845 v -9.9746 h -3.7091 v -3.0324 h 11.3779 v 3.0324 z" style="font-style:normal;font-variant:normal;font-weight:bold;font-stretch:normal;font-size:25.0616px;font-family:'Yandex Sans Text';-inkscape-font-specification:'Yandex Sans Text Bold';fill:#1a1a1a;fill-opacity:1" id="path900"></path><path d="m -5800.3237,4144.3327 q -1.4285,0 -2.6565,-0.4261 -1.203,-0.4511 -2.1052,-1.3032 -0.9022,-0.8771 -1.4285,-2.1302 -0.5012,-1.2531 -0.5012,-2.9072 0,-1.629 0.5012,-2.882 0.5263,-1.2782 1.4285,-2.1303 0.9022,-0.8521 2.1052,-1.2781 1.228,-0.4511 2.6565,-0.4511 1.4285,0 2.6566,0.4511 1.228,0.426 2.1302,1.2781 0.9273,0.8521 1.4285,2.1303 0.5263,1.253 0.5263,2.882 0,1.6541 -0.5263,2.9072 -0.5012,1.2531 -1.4285,2.1302 -0.9022,0.8521 -2.1302,1.3032 -1.2281,0.4261 -2.6566,0.4261 z m 0,-2.9824 q 1.203,0 1.9548,-0.9022 0.7769,-0.9273 0.7769,-2.8821 0,-1.8796 -0.7769,-2.8069 -0.7518,-0.9272 -1.9548,-0.9272 -1.1528,0 -1.9297,0.9272 -0.7519,0.9273 -0.7519,2.8069 0,1.9548 0.7519,2.8821 0.7769,0.9022 1.9297,0.9022 z" style="font-style:normal;font-variant:normal;font-weight:bold;font-stretch:normal;font-size:25.0616px;font-family:'Yandex Sans Text';-inkscape-font-specification:'Yandex Sans Text Bold';fill:#1a1a1a;fill-opacity:1" id="path902"></path><path d="m -5787.6175,4133.7066 v 2.5312 h 1.5037 q 0.802,0 1.2782,-0.3008 0.5012,-0.3007 0.5012,-0.9523 0,-0.7017 -0.426,-0.9774 -0.401,-0.3007 -1.203,-0.3007 z m 0,5.0123 v 2.7317 h 1.604 q 0.9273,0 1.5037,-0.2757 0.5764,-0.3007 0.5764,-1.0776 0,-0.7018 -0.5263,-1.0276 -0.5263,-0.3508 -1.7292,-0.3508 z m -3.8344,-7.6438 h 5.8143 q 2.7317,0 3.9597,0.7769 1.2281,0.7769 1.2281,2.3307 0,1.2531 -0.802,1.9548 -0.7769,0.7018 -2.3558,1.1027 1.8796,0.2757 2.7317,1.0025 0.8772,0.7017 0.8772,2.1553 0,1.8044 -1.5037,2.7568 -1.4787,0.9273 -4.1853,0.9273 h -5.7642 z" style="font-style:normal;font-variant:normal;font-weight:bold;font-stretch:normal;font-size:25.0616px;font-family:'Yandex Sans Text';-inkscape-font-specification:'Yandex Sans Text Bold';fill:#1a1a1a;fill-opacity:1" id="path904"></path></g></g></svg> 