<?xml version="1.0" encoding="UTF-8" standalone="no"?>
<svg width="750.28137mm" height="150mm" viewBox="0 0 750.28137 150" version="1.1" id="svg10998" inkscape:version="1.1.1 (3bf5ae0d25, 2021-09-20)" sodipodi:docname="mir_logo_ru_full.svg" inkscape:export-filename="C:\Users\User\Desktop\MIR Brand Assets\Standart\mir_logo_ru_full.png" inkscape:export-xdpi="34.90551" inkscape:export-ydpi="34.90551" xmlns:inkscape="http://www.inkscape.org/namespaces/inkscape" xmlns:sodipodi="http://sodipodi.sourceforge.net/DTD/sodipodi-0.dtd" xmlns="http://www.w3.org/2000/svg" xmlns:svg="http://www.w3.org/2000/svg" xmlns:rdf="http://www.w3.org/1999/02/22-rdf-syntax-ns#" xmlns:cc="http://creativecommons.org/ns#" xmlns:dc="http://purl.org/dc/elements/1.1/">
  <sodipodi:namedview pagecolor="#ffffff" bordercolor="#666666" borderopacity="1" objecttolerance="10" gridtolerance="10" guidetolerance="10" inkscape:pageopacity="0" inkscape:pageshadow="2" inkscape:window-width="1920" inkscape:window-height="991" id="namedview40" showgrid="false" inkscape:zoom="0.1530752" inkscape:cx="1019.1069" inkscape:cy="983.1769" inkscape:window-x="-9" inkscape:window-y="-9" inkscape:window-maximized="1" inkscape:current-layer="layer1" inkscape:pagecheckerboard="1" inkscape:document-units="mm" />
  <defs id="defs10992">
    <rect x="-5890.7207" y="4075.6516" width="355.59998" height="133.35001" id="rect10922" />
    <rect x="-5890.7207" y="4075.6516" width="355.59998" height="133.35001" id="rect10987" />
    <rect x="-5890.7207" y="4075.6516" width="355.59998" height="133.35001" id="rect10922-2-5-1" />
  </defs>
  <metadata id="metadata10995">
    <rdf:RDF>
      <cc:Work rdf:about="">
        <dc:format>image/svg+xml</dc:format>
        <dc:type rdf:resource="http://purl.org/dc/dcmitype/StillImage" />
        <dc:creator>
          <cc:Agent>
            <dc:title>Роман Иноземцев</dc:title>
          </cc:Agent>
        </dc:creator>
        <dc:publisher>
          <cc:Agent>
            <dc:title>ООО &quot;Машины Интеллектуальных Расчётов&quot;</dc:title>
          </cc:Agent>
        </dc:publisher>
        <dc:language>Русский</dc:language>
        <cc:license rdf:resource="http://creativecommons.org/publicdomain/zero/1.0/" />
      </cc:Work>
      <cc:License rdf:about="http://creativecommons.org/publicdomain/zero/1.0/">
        <cc:permits rdf:resource="http://creativecommons.org/ns#Reproduction" />
        <cc:permits rdf:resource="http://creativecommons.org/ns#Distribution" />
        <cc:permits rdf:resource="http://creativecommons.org/ns#DerivativeWorks" />
      </cc:License>
    </rdf:RDF>
  </metadata>
  <g inkscape:label="Слой 1" inkscape:groupmode="layer" id="layer1" transform="translate(513.35243,-21.999786)">
    <g id="g214000" transform="matrix(0.49999959,0,0,0.49999959,2715.4418,319.46579)">
      <path id="rect213850" style="fill:#22272e;fill-rule:evenodd;stroke-width:17.9977;stroke-linecap:round;stroke-linejoin:round;paint-order:markers stroke fill;stop-color:#000000" d="m -6457.5937,-594.9325 h 300.0002 v 300.00025 h -300.0002 z" />
      <g id="g213998" transform="translate(-66.244414,207.95067)" style="fill:#ffffff;fill-opacity:1;stroke:none">
        <path id="rect213852" style="fill-rule:evenodd;stroke-width:0.666579;stroke-linecap:round;stroke-linejoin:round;paint-order:markers stroke fill;stop-color:#000000" d="m -6380.2461,-791.77173 h 11.1111 v 11.11107 h -11.1111 z" />
        <path id="rect213854" style="fill-rule:evenodd;stroke-width:0.666579;stroke-linecap:round;stroke-linejoin:round;paint-order:markers stroke fill;stop-color:#000000" d="m -6346.9131,-791.77173 h 11.1111 v 11.11107 h -11.1111 z" />
        <path id="rect213856" style="fill-rule:evenodd;stroke-width:0.666579;stroke-linecap:round;stroke-linejoin:round;paint-order:markers stroke fill;stop-color:#000000" d="m -6313.5791,-791.77167 h 11.1111 v 11.11107 h -11.1111 z" />
        <path id="rect213858" style="fill-rule:evenodd;stroke-width:0.666579;stroke-linecap:round;stroke-linejoin:round;paint-order:markers stroke fill;stop-color:#000000" d="m -6280.2461,-791.77167 h 11.1111 v 11.11107 h -11.1111 z" />
        <path id="rect213860" style="fill-rule:evenodd;stroke-width:0.666579;stroke-linecap:round;stroke-linejoin:round;paint-order:markers stroke fill;stop-color:#000000" d="m -6313.5796,-758.43848 h 11.1111 v 11.11107 h -11.1111 z" />
        <path id="rect213862" style="fill-rule:evenodd;stroke-width:0.666579;stroke-linecap:round;stroke-linejoin:round;paint-order:markers stroke fill;stop-color:#000000" d="m -6280.2466,-758.43848 h 11.1111 v 11.11107 h -11.1111 z" />
        <path id="rect213864" style="fill-rule:evenodd;stroke-width:0.666579;stroke-linecap:round;stroke-linejoin:round;paint-order:markers stroke fill;stop-color:#000000" d="m -6313.5791,-725.10541 h 11.1111 v 11.11107 h -11.1111 z" />
        <path id="rect213866" style="fill-rule:evenodd;stroke-width:0.666579;stroke-linecap:round;stroke-linejoin:round;paint-order:markers stroke fill;stop-color:#000000" d="m -6280.2461,-725.10541 h 11.1111 v 11.11107 h -11.1111 z" />
        <path id="rect213868" style="fill-rule:evenodd;stroke-width:0.666579;stroke-linecap:round;stroke-linejoin:round;paint-order:markers stroke fill;stop-color:#000000" d="m -6380.2456,-725.10535 h 11.1111 v 11.11107 h -11.1111 z" />
        <path id="rect213870" style="fill-rule:evenodd;stroke-width:0.666579;stroke-linecap:round;stroke-linejoin:round;paint-order:markers stroke fill;stop-color:#000000" d="m -6346.9126,-725.10535 h 11.1111 v 11.11107 h -11.1111 z" />
        <path id="rect213872" style="fill-rule:evenodd;stroke-width:0.666579;stroke-linecap:round;stroke-linejoin:round;paint-order:markers stroke fill;stop-color:#000000" d="m -6380.2461,-691.77216 h 11.1111 v 11.11107 h -11.1111 z" />
        <path id="rect213874" style="fill-rule:evenodd;stroke-width:0.666579;stroke-linecap:round;stroke-linejoin:round;paint-order:markers stroke fill;stop-color:#000000" d="m -6346.9131,-691.77216 h 11.1111 v 11.11107 h -11.1111 z" />
        <path id="rect213876" style="fill-rule:evenodd;stroke-width:0.666579;stroke-linecap:round;stroke-linejoin:round;paint-order:markers stroke fill;stop-color:#000000" d="m -6380.2456,-625.1059 h 11.1111 v 11.11107 h -11.1111 z" />
        <path id="rect213878" style="fill-rule:evenodd;stroke-width:0.666579;stroke-linecap:round;stroke-linejoin:round;paint-order:markers stroke fill;stop-color:#000000" d="m -6346.9126,-625.1059 h 11.1111 v 11.11107 h -11.1111 z" />
        <path id="rect213880" style="fill-rule:evenodd;stroke-width:0.666579;stroke-linecap:round;stroke-linejoin:round;paint-order:markers stroke fill;stop-color:#000000" d="m -6380.2456,-591.77264 h 11.1111 v 11.11107 h -11.1111 z" />
        <path id="rect213882" style="fill-rule:evenodd;stroke-width:0.666579;stroke-linecap:round;stroke-linejoin:round;paint-order:markers stroke fill;stop-color:#000000" d="m -6346.9126,-591.77264 h 11.1111 v 11.11107 h -11.1111 z" />
        <path id="rect213884" style="fill-rule:evenodd;stroke-width:0.666579;stroke-linecap:round;stroke-linejoin:round;paint-order:markers stroke fill;stop-color:#000000" d="m -6313.5796,-591.77264 h 11.1111 v 11.11107 h -11.1111 z" />
        <path id="rect213886" style="fill-rule:evenodd;stroke-width:0.666579;stroke-linecap:round;stroke-linejoin:round;paint-order:markers stroke fill;stop-color:#000000" d="m -6280.2466,-591.77264 h 11.1111 v 11.11107 h -11.1111 z" />
        <path id="rect213888" style="fill-rule:evenodd;stroke-width:0.666579;stroke-linecap:round;stroke-linejoin:round;paint-order:markers stroke fill;stop-color:#000000" d="m -6246.9121,-591.77264 h 11.1111 v 11.11107 h -11.1111 z" />
        <path id="rect213890" style="fill-rule:evenodd;stroke-width:0.666579;stroke-linecap:round;stroke-linejoin:round;paint-order:markers stroke fill;stop-color:#000000" d="m -6213.5791,-591.77264 h 11.1111 v 11.11107 h -11.1111 z" />
        <path id="rect213892" style="fill-rule:evenodd;stroke-width:0.666579;stroke-linecap:round;stroke-linejoin:round;paint-order:markers stroke fill;stop-color:#000000" d="m -6180.2456,-591.77264 h 11.1111 v 11.11107 h -11.1111 z" />
        <path id="rect213894" style="fill-rule:evenodd;stroke-width:0.666579;stroke-linecap:round;stroke-linejoin:round;paint-order:markers stroke fill;stop-color:#000000" d="m -6146.9126,-591.77264 h 11.1111 v 11.11107 h -11.1111 z" />
        <path id="rect213896" style="fill-rule:evenodd;stroke-width:0.666579;stroke-linecap:round;stroke-linejoin:round;paint-order:markers stroke fill;stop-color:#000000" d="m -6380.2466,-525.10632 h 11.1111 v 11.11107 h -11.1111 z" />
        <path id="rect213898" style="fill-rule:evenodd;stroke-width:0.666579;stroke-linecap:round;stroke-linejoin:round;paint-order:markers stroke fill;stop-color:#000000" d="m -6380.2461,-558.43945 h 11.1111 v 11.11107 h -11.1111 z" />
        <path id="rect213900" style="fill-rule:evenodd;stroke-width:0.666579;stroke-linecap:round;stroke-linejoin:round;paint-order:markers stroke fill;stop-color:#000000" d="m -6313.5791,-558.43945 h 11.1111 v 11.11107 h -11.1111 z" />
        <path id="rect213902" style="fill-rule:evenodd;stroke-width:0.666579;stroke-linecap:round;stroke-linejoin:round;paint-order:markers stroke fill;stop-color:#000000" d="m -6280.2461,-558.43945 h 11.1111 v 11.11107 h -11.1111 z" />
        <path id="rect213904" style="fill-rule:evenodd;stroke-width:0.666579;stroke-linecap:round;stroke-linejoin:round;paint-order:markers stroke fill;stop-color:#000000" d="m -6213.5791,-558.43945 h 11.1111 v 11.11107 h -11.1111 z" />
        <path id="rect213906" style="fill-rule:evenodd;stroke-width:0.666579;stroke-linecap:round;stroke-linejoin:round;paint-order:markers stroke fill;stop-color:#000000" d="m -6180.2461,-558.43945 h 11.1111 v 11.11107 h -11.1111 z" />
        <path id="rect213908" style="fill-rule:evenodd;stroke-width:0.666579;stroke-linecap:round;stroke-linejoin:round;paint-order:markers stroke fill;stop-color:#000000" d="m -6113.5791,-558.43945 h 11.1111 v 11.11107 h -11.1111 z" />
        <path id="rect213910" style="fill-rule:evenodd;stroke-width:0.666579;stroke-linecap:round;stroke-linejoin:round;paint-order:markers stroke fill;stop-color:#000000" d="m -6113.5791,-525.10632 h 11.1111 v 11.11107 h -11.1111 z" />
        <path id="rect213912" style="fill-rule:evenodd;stroke-width:0.666579;stroke-linecap:round;stroke-linejoin:round;paint-order:markers stroke fill;stop-color:#000000" d="m -6113.5791,-591.77264 h 11.1111 v 11.11107 h -11.1111 z" />
        <path id="rect213914" style="fill-rule:evenodd;stroke-width:0.666579;stroke-linecap:round;stroke-linejoin:round;paint-order:markers stroke fill;stop-color:#000000" d="m -6113.5786,-625.10583 h 11.1111 v 11.11107 h -11.1111 z" />
        <path id="rect213916" style="fill-rule:evenodd;stroke-width:0.666579;stroke-linecap:round;stroke-linejoin:round;paint-order:markers stroke fill;stop-color:#000000" d="m -6113.5786,-658.43896 h 11.1111 v 11.11107 h -11.1111 z" />
        <path id="rect213918" style="fill-rule:evenodd;stroke-width:0.666579;stroke-linecap:round;stroke-linejoin:round;paint-order:markers stroke fill;stop-color:#000000" d="m -6113.5786,-691.77216 h 11.1111 v 11.11107 h -11.1111 z" />
        <path id="rect213920" style="fill-rule:evenodd;stroke-width:0.666579;stroke-linecap:round;stroke-linejoin:round;paint-order:markers stroke fill;stop-color:#000000" d="m -6180.2456,-658.43896 h 11.1111 v 11.11107 h -11.1111 z" />
        <path id="rect213922" style="fill-rule:evenodd;stroke-width:0.666579;stroke-linecap:round;stroke-linejoin:round;paint-order:markers stroke fill;stop-color:#000000" d="m -6113.5791,-725.10535 h 11.1111 v 11.11107 h -11.1111 z" />
        <path id="rect213924" style="fill-rule:evenodd;stroke-width:0.666579;stroke-linecap:round;stroke-linejoin:round;paint-order:markers stroke fill;stop-color:#000000" d="m -6113.5791,-758.43848 h 11.1111 v 11.11107 h -11.1111 z" />
        <path id="rect213926" style="fill-rule:evenodd;stroke-width:0.666579;stroke-linecap:round;stroke-linejoin:round;paint-order:markers stroke fill;stop-color:#000000" d="m -6113.5791,-791.77167 h 11.1111 v 11.11107 h -11.1111 z" />
        <path id="rect213928" style="fill-rule:evenodd;stroke-width:0.666579;stroke-linecap:round;stroke-linejoin:round;paint-order:markers stroke fill;stop-color:#000000" d="m -6313.5791,-691.77216 h 11.1111 v 11.11107 h -11.1111 z" />
        <path id="rect213930" style="fill-rule:evenodd;stroke-width:0.666579;stroke-linecap:round;stroke-linejoin:round;paint-order:markers stroke fill;stop-color:#000000" d="m -6313.5791,-658.43896 h 11.1111 v 11.11107 h -11.1111 z" />
        <path id="rect213932" style="fill-rule:evenodd;stroke-width:0.666579;stroke-linecap:round;stroke-linejoin:round;paint-order:markers stroke fill;stop-color:#000000" d="m -6313.5791,-625.10583 h 11.1111 v 11.11107 h -11.1111 z" />
        <path id="rect213934" style="fill-rule:evenodd;stroke-width:0.666579;stroke-linecap:round;stroke-linejoin:round;paint-order:markers stroke fill;stop-color:#000000" d="m -6380.2461,-658.43896 h 11.1111 v 11.11107 h -11.1111 z" />
        <path id="rect213936" style="fill-rule:evenodd;stroke-width:0.666579;stroke-linecap:round;stroke-linejoin:round;paint-order:markers stroke fill;stop-color:#000000" d="m -6346.9136,-525.10632 h 11.1111 v 11.11107 h -11.1111 z" />
        <path id="rect213938" style="fill-rule:evenodd;stroke-width:0.666579;stroke-linecap:round;stroke-linejoin:round;paint-order:markers stroke fill;stop-color:#000000" d="m -6313.5806,-525.10632 h 11.1111 v 11.11107 h -11.1111 z" />
        <path id="rect213940" style="fill-rule:evenodd;stroke-width:0.666579;stroke-linecap:round;stroke-linejoin:round;paint-order:markers stroke fill;stop-color:#000000" d="m -6280.2476,-525.10632 h 11.1111 v 11.11107 h -11.1111 z" />
        <path id="rect213942" style="fill-rule:evenodd;stroke-width:0.666579;stroke-linecap:round;stroke-linejoin:round;paint-order:markers stroke fill;stop-color:#000000" d="m -6246.9131,-525.10632 h 11.1111 v 11.11107 h -11.1111 z" />
        <path id="rect213944" style="fill-rule:evenodd;stroke-width:0.666579;stroke-linecap:round;stroke-linejoin:round;paint-order:markers stroke fill;stop-color:#000000" d="m -6213.5801,-525.10632 h 11.1111 v 11.11107 h -11.1111 z" />
        <path id="rect213946" style="fill-rule:evenodd;stroke-width:0.666579;stroke-linecap:round;stroke-linejoin:round;paint-order:markers stroke fill;stop-color:#000000" d="m -6180.2466,-525.10632 h 11.1111 v 11.11107 h -11.1111 z" />
        <path id="rect213948" style="fill-rule:evenodd;stroke-width:0.666579;stroke-linecap:round;stroke-linejoin:round;paint-order:markers stroke fill;stop-color:#000000" d="m -6146.9136,-525.10632 h 11.1111 v 11.11107 h -11.1111 z" />
        <path id="rect213950" style="fill-rule:evenodd;stroke-width:0.666579;stroke-linecap:round;stroke-linejoin:round;paint-order:markers stroke fill;stop-color:#000000" d="m -6180.2456,-625.10583 h 11.1111 v 11.11107 h -11.1111 z" />
        <path id="rect213952" style="fill-rule:evenodd;stroke-width:0.666579;stroke-linecap:round;stroke-linejoin:round;paint-order:markers stroke fill;stop-color:#000000" d="m -6146.9126,-625.10583 h 11.1111 v 11.11107 h -11.1111 z" />
        <path id="rect213954" style="fill-rule:evenodd;stroke-width:0.666579;stroke-linecap:round;stroke-linejoin:round;paint-order:markers stroke fill;stop-color:#000000" d="m -6180.2451,-691.77216 h 11.1111 v 11.11107 h -11.1111 z" />
        <path id="rect213956" style="fill-rule:evenodd;stroke-width:0.666579;stroke-linecap:round;stroke-linejoin:round;paint-order:markers stroke fill;stop-color:#000000" d="m -6146.9121,-691.77216 h 11.1111 v 11.11107 h -11.1111 z" />
        <path id="rect213958" style="fill-rule:evenodd;stroke-width:0.666579;stroke-linecap:round;stroke-linejoin:round;paint-order:markers stroke fill;stop-color:#000000" d="m -6180.2461,-725.10535 h 11.1111 v 11.11107 h -11.1111 z" />
        <path id="rect213960" style="fill-rule:evenodd;stroke-width:0.666579;stroke-linecap:round;stroke-linejoin:round;paint-order:markers stroke fill;stop-color:#000000" d="m -6146.9131,-725.10535 h 11.1111 v 11.11107 h -11.1111 z" />
        <path id="rect213962" style="fill-rule:evenodd;stroke-width:0.666579;stroke-linecap:round;stroke-linejoin:round;paint-order:markers stroke fill;stop-color:#000000" d="m -6246.9131,-725.10535 h 11.1111 v 11.11107 h -11.1111 z" />
        <path id="rect213964" style="fill-rule:evenodd;stroke-width:0.666579;stroke-linecap:round;stroke-linejoin:round;paint-order:markers stroke fill;stop-color:#000000" d="m -6213.5801,-725.10535 h 11.1111 v 11.11107 h -11.1111 z" />
        <path id="rect213966" style="fill-rule:evenodd;stroke-width:0.666579;stroke-linecap:round;stroke-linejoin:round;paint-order:markers stroke fill;stop-color:#000000" d="m -6213.5791,-758.43848 h 11.1111 v 11.11107 h -11.1111 z" />
        <path id="rect213968" style="fill-rule:evenodd;stroke-width:0.666579;stroke-linecap:round;stroke-linejoin:round;paint-order:markers stroke fill;stop-color:#000000" d="m -6180.2461,-758.43848 h 11.1111 v 11.11107 h -11.1111 z" />
        <path id="rect213970" style="fill-rule:evenodd;stroke-width:0.666579;stroke-linecap:round;stroke-linejoin:round;paint-order:markers stroke fill;stop-color:#000000" d="m -6246.9131,-791.77167 h 11.1111 v 11.11107 h -11.1111 z" />
        <path id="rect213972" style="fill-rule:evenodd;stroke-width:0.666579;stroke-linecap:round;stroke-linejoin:round;paint-order:markers stroke fill;stop-color:#000000" d="m -6213.5801,-791.77167 h 11.1111 v 11.11107 h -11.1111 z" />
        <path id="rect213974" style="fill-rule:evenodd;stroke-width:0.666579;stroke-linecap:round;stroke-linejoin:round;paint-order:markers stroke fill;stop-color:#000000" d="m -6180.2461,-791.77173 h 11.1111 v 11.11107 h -11.1111 z" />
        <path id="rect213976" style="fill-rule:evenodd;stroke-width:0.666579;stroke-linecap:round;stroke-linejoin:round;paint-order:markers stroke fill;stop-color:#000000" d="m -6146.9131,-791.77173 h 11.1111 v 11.11107 h -11.1111 z" />
        <path id="rect213978" style="fill-rule:evenodd;stroke-width:0.666579;stroke-linecap:round;stroke-linejoin:round;paint-order:markers stroke fill;stop-color:#000000" d="m -6380.2461,-758.43848 h 11.1111 v 11.11107 h -11.1111 z" />
        <path id="rect213980" style="fill-rule:evenodd;stroke-width:1.99972;stroke-linecap:round;stroke-linejoin:round;paint-order:markers stroke fill;stop-color:#000000" d="m -6358.0239,-769.54956 h 33.333 v 33.33301 h -33.333 z" />
        <path id="rect213982" style="fill-rule:evenodd;stroke-width:1.99972;stroke-linecap:round;stroke-linejoin:round;paint-order:markers stroke fill;stop-color:#000000" d="m -6258.0239,-769.54956 h 33.333 v 33.33301 h -33.333 z" />
        <path id="rect213984" style="fill-rule:evenodd;stroke-width:1.99972;stroke-linecap:round;stroke-linejoin:round;paint-order:markers stroke fill;stop-color:#000000" d="m -6158.0239,-769.54944 h 33.333 v 33.33301 h -33.333 z" />
        <path id="rect213986" style="fill-rule:evenodd;stroke-width:1.99972;stroke-linecap:round;stroke-linejoin:round;paint-order:markers stroke fill;stop-color:#000000" inkscape:transform-center-x="-0.29232605" inkscape:transform-center-y="-8.1851294" d="m -6158.0234,-669.54987 h 33.333 v 33.33301 h -33.333 z" />
        <path id="rect213988" style="fill-rule:evenodd;stroke-width:1.99972;stroke-linecap:round;stroke-linejoin:round;paint-order:markers stroke fill;stop-color:#000000" d="m -6158.0239,-569.55054 h 33.333 v 33.33301 h -33.333 z" />
        <path id="rect213990" style="fill-rule:evenodd;stroke-width:1.99972;stroke-linecap:round;stroke-linejoin:round;paint-order:markers stroke fill;stop-color:#000000" d="m -6258.0239,-569.55042 h 33.333 v 33.33301 h -33.333 z" />
        <path id="rect213992" style="fill-rule:evenodd;stroke-width:1.99972;stroke-linecap:round;stroke-linejoin:round;paint-order:markers stroke fill;stop-color:#000000" inkscape:transform-center-x="-5.554195" d="m -6358.0239,-569.55054 h 33.333 v 33.33301 h -33.333 z" />
        <path id="rect213994" style="fill-rule:evenodd;stroke-width:1.99972;stroke-linecap:round;stroke-linejoin:round;paint-order:markers stroke fill;stop-color:#000000" d="m -6358.0239,-669.55005 h 33.333 v 33.33301 h -33.333 z" />
        <path id="rect213996" style="fill-rule:evenodd;stroke-width:5.99914;stroke-linecap:round;stroke-linejoin:round;paint-order:markers stroke fill;stop-color:#000000" d="m -6291.3569,-702.88251 h 99.9987 v 99.99877 h -99.9987 z" />
      </g>
    </g>
    <g aria-label="Машины Интеллектуальных  Расчётов" transform="matrix(2.201289,0,0,2.201289,12657.23,-8951.1924)" id="text10920-7-7-1" style="font-size:25.0616px;line-height:0.95;white-space:pre;shape-inside:url(#rect10922-2-5-1);fill:#22272e">
      <path d="m -5884.8814,4077.6823 5.3883,8.8468 5.3882,-8.8468 h 4.2104 v 16.7662 h -4.2104 v -9.4231 l -3.9597,6.2403 h -2.8821 l -3.9347,-6.2403 v 9.4231 h -4.2354 v -16.7662 z" style="font-weight:bold;font-family:Kinetika-Black;-inkscape-font-specification:'Kinetika-Black Bold'" id="path1295" />
      <path d="m -5865.8847,4083.2209 q 1.7543,-1.8796 4.461,-1.8796 2.3307,0 3.8344,1.6792 v -1.3784 h 3.8846 v 12.8064 h -3.8846 v -1.3533 q -1.5288,1.6541 -3.8845,1.6541 -2.6816,0 -4.4359,-1.8796 -1.7293,-1.9047 -1.7293,-4.8369 0,-2.9322 1.7543,-4.8119 z m 3.2079,6.9922 q 0.827,0.8772 2.1052,0.8772 1.2531,0 2.1051,-0.8772 0.8521,-0.9022 0.8521,-2.2054 0,-1.2531 -0.8521,-2.1302 -0.852,-0.8772 -2.0801,-0.8772 -1.2781,0 -2.1302,0.8772 -0.8521,0.8521 -0.8521,2.1553 0,1.3282 0.8521,2.1803 z" style="font-weight:bold;font-family:Kinetika-Black;-inkscape-font-specification:'Kinetika-Black Bold'" id="path1297" />
      <path d="m -5830.9739,4094.4485 h -19.9741 v -12.8064 h 4.3106 v 9.2226 h 3.5337 v -9.2226 h 4.2855 v 9.2226 h 3.5588 v -9.2226 h 4.2855 z" style="font-weight:bold;font-family:Kinetika-Black;-inkscape-font-specification:'Kinetika-Black Bold'" id="path1299" />
      <path d="m -5828.2171,4081.6421 h 3.9597 v 6.917 l 5.288,-6.917 h 3.7342 v 12.8064 h -3.9598 v -6.8668 l -5.2378,6.8668 h -3.7843 z" style="font-weight:bold;font-family:Kinetika-Black;-inkscape-font-specification:'Kinetika-Black Bold'" id="path1301" />
      <path d="m -5804.1831,4086.4288 v -4.7867 h 4.3106 v 12.8064 h -4.3106 v -4.4359 h -4.0099 v 4.4359 h -4.2855 v -12.8064 h 4.2855 v 4.7867 z" style="font-weight:bold;font-family:Kinetika-Black;-inkscape-font-specification:'Kinetika-Black Bold'" id="path1303" />
      <path d="m -5797.1158,4094.4485 v -12.8064 h 4.035 v 3.0825 h 3.7843 q 2.0801,0 3.4585,1.3784 1.4034,1.3534 1.4034,3.4084 0,2.1553 -1.3784,3.5588 -1.3784,1.3783 -3.5838,1.3783 z m 18.295,-12.8064 v 12.8064 h -4.2354 v -12.8064 z m -14.26,9.6236 h 2.882 q 0.7519,0 1.2531,-0.5012 0.5013,-0.5012 0.5013,-1.2782 0,-0.7769 -0.5263,-1.2781 -0.5013,-0.5012 -1.2782,-0.5012 h -2.8319 z" style="font-weight:bold;font-family:Kinetika-Black;-inkscape-font-specification:'Kinetika-Black Bold'" id="path1305" />
      <path d="m -5884.8814,4101.8728 v 9.9494 l 6.7917,-9.9494 h 4.1853 v 16.7662 h -4.2354 v -10.0497 l -6.917,10.0497 h -4.06 v -16.7662 z" style="font-weight:bold;font-family:Kinetika-Black;-inkscape-font-specification:'Kinetika-Black Bold'" id="path1307" />
      <path d="m -5862.6267,4110.6193 v -4.7868 h 4.3106 v 12.8065 h -4.3106 v -4.4359 h -4.0098 v 4.4359 h -4.2856 v -12.8065 h 4.2856 v 4.7868 z" style="font-weight:bold;font-family:Kinetika-Black;-inkscape-font-specification:'Kinetika-Black Bold'" id="path1309" />
      <path d="m -5856.4866,4105.8325 h 12.2551 v 3.8094 h -3.9848 v 8.9971 h -4.2855 v -8.9971 h -3.9848 z" style="font-weight:bold;font-family:Kinetika-Black;-inkscape-font-specification:'Kinetika-Black Bold'" id="path1311" />
      <path d="m -5843.3043,4112.2733 q 0,-2.9823 1.9047,-4.8619 1.9298,-1.8796 5.0374,-1.8796 3.0074,0 4.862,1.7543 1.8545,1.7543 1.8545,4.5862 0,0.7519 -0.075,1.3283 h -9.6738 q 0.1755,1.1528 1.0025,1.8546 0.827,0.6766 2.0049,0.6766 2.005,0 2.7819,-1.5287 l 3.3582,1.3533 q -0.6014,1.5538 -2.2555,2.4811 -1.6541,0.9022 -3.8344,0.9022 -3.1327,0 -5.0625,-1.8545 -1.9047,-1.8546 -1.9047,-4.8119 z m 3.9598,-1.3282 h 5.7641 q -0.2005,-1.0276 -0.9774,-1.6541 -0.7518,-0.6516 -1.8545,-0.6516 -1.0777,0 -1.8796,0.6265 -0.802,0.6266 -1.0526,1.6792 z" style="font-weight:bold;font-family:Kinetika-Black;-inkscape-font-specification:'Kinetika-Black Bold'" id="path1313" />
      <path d="m -5826.9642,4118.8896 q -1.2029,0 -1.8796,-0.2256 v -3.6339 q 0.6767,0.1253 1.0275,0.1253 1.0526,0 1.5288,-0.7017 0.2506,-0.3759 0.3759,-1.0777 0.1253,-0.7017 0.1253,-1.3032 0.025,-0.6265 0.025,-1.9798 v -4.2605 h 11.3028 v 12.8065 h -4.2856 v -9.0723 h -3.0074 v 2.3056 q 0,3.7092 -1.0525,5.1878 -1.3032,1.8295 -4.1603,1.8295 z" style="font-weight:bold;font-family:Kinetika-Black;-inkscape-font-specification:'Kinetika-Black Bold'" id="path1315" />
      <path d="m -5810.8245,4118.8896 q -1.203,0 -1.8796,-0.2256 v -3.6339 q 0.6766,0.1253 1.0275,0.1253 1.0526,0 1.5287,-0.7017 0.2507,-0.3759 0.376,-1.0777 0.1253,-0.7017 0.1253,-1.3032 0.025,-0.6265 0.025,-1.9798 v -4.2605 h 11.3028 v 12.8065 h -4.2855 v -9.0723 h -3.0074 v 2.3056 q 0,3.7092 -1.0526,5.1878 -1.3032,1.8295 -4.1602,1.8295 z" style="font-weight:bold;font-family:Kinetika-Black;-inkscape-font-specification:'Kinetika-Black Bold'" id="path1317" />
      <path d="m -5796.1886,4112.2733 q 0,-2.9823 1.9047,-4.8619 1.9298,-1.8796 5.0374,-1.8796 3.0074,0 4.8619,1.7543 1.8546,1.7543 1.8546,4.5862 0,0.7519 -0.075,1.3283 h -9.6738 q 0.1755,1.1528 1.0025,1.8546 0.827,0.6766 2.0049,0.6766 2.005,0 2.7819,-1.5287 l 3.3582,1.3533 q -0.6015,1.5538 -2.2555,2.4811 -1.6541,0.9022 -3.8344,0.9022 -3.1327,0 -5.0625,-1.8545 -1.9047,-1.8546 -1.9047,-4.8119 z m 3.9598,-1.3282 h 5.7641 q -0.2005,-1.0276 -0.9774,-1.6541 -0.7518,-0.6516 -1.8545,-0.6516 -1.0777,0 -1.8797,0.6265 -0.8019,0.6266 -1.0525,1.6792 z" style="font-weight:bold;font-family:Kinetika-Black;-inkscape-font-specification:'Kinetika-Black Bold'" id="path1319" />
      <path d="m -5780.4249,4118.639 v -12.8065 h 4.2354 v 5.2629 l 4.0099,-5.2629 h 4.8369 l -4.9873,6.5661 5.0123,6.2404 h -5.0373 l -3.7843,-4.7116 -0.05,-0.025 v 4.7367 z" style="font-weight:bold;font-family:Kinetika-Black;-inkscape-font-specification:'Kinetika-Black Bold'" id="path1321" />
      <path d="m -5766.8916,4105.8325 h 12.2551 v 3.8094 h -3.9848 v 8.9971 h -4.2855 v -8.9971 h -3.9848 z" style="font-weight:bold;font-family:Kinetika-Black;-inkscape-font-specification:'Kinetika-Black Bold'" id="path1323" />
      <path d="m -5749.8748,4105.8074 3.3583,9.0473 2.9322,-9.0473 h 4.3106 l -4.2856,12.0045 q -0.401,1.1278 -0.7017,1.8045 -0.2757,0.7017 -0.8772,1.654 -0.6014,0.9774 -1.2781,1.5037 -0.6516,0.5514 -1.7292,0.9524 -1.0777,0.426 -2.406,0.426 -1.5037,0 -3.1577,-0.6265 v -3.659 q 1.3533,0.6767 2.7066,0.6767 1.8546,0 2.5313,-1.1028 l -5.7392,-13.6335 z" style="font-weight:bold;font-family:Kinetika-Black;-inkscape-font-specification:'Kinetika-Black Bold'" id="path1325" />
      <path d="m -5737.1436,4107.4114 q 1.7544,-1.8796 4.461,-1.8796 2.3307,0 3.8344,1.6791 v -1.3784 h 3.8846 v 12.8065 h -3.8846 v -1.3534 q -1.5287,1.6541 -3.8845,1.6541 -2.6816,0 -4.4359,-1.8796 -1.7293,-1.9047 -1.7293,-4.8369 0,-2.9322 1.7543,-4.8118 z m 3.2079,6.9922 q 0.8271,0.8771 2.1052,0.8771 1.2531,0 2.1052,-0.8771 0.8521,-0.9023 0.8521,-2.2055 0,-1.253 -0.8521,-2.1302 -0.8521,-0.8772 -2.0801,-0.8772 -1.2782,0 -2.1303,0.8772 -0.8521,0.8521 -0.8521,2.1553 0,1.3283 0.8521,2.1804 z" style="font-weight:bold;font-family:Kinetika-Black;-inkscape-font-specification:'Kinetika-Black Bold'" id="path1327" />
      <path d="m -5721.3297,4118.8896 q -1.203,0 -1.8796,-0.2256 v -3.6339 q 0.6766,0.1253 1.0275,0.1253 1.0526,0 1.5287,-0.7017 0.2507,-0.3759 0.376,-1.0777 0.1253,-0.7017 0.1253,-1.3032 0.025,-0.6265 0.025,-1.9798 v -4.2605 h 11.3028 v 12.8065 h -4.2855 v -9.0723 h -3.0074 v 2.3056 q 0,3.7092 -1.0526,5.1878 -1.3032,1.8295 -4.1602,1.8295 z" style="font-weight:bold;font-family:Kinetika-Black;-inkscape-font-specification:'Kinetika-Black Bold'" id="path1329" />
      <path d="m -5702.0323,4108.9151 h 3.7843 q 2.0801,0 3.4585,1.3784 1.4034,1.3533 1.4034,3.4083 0,2.1553 -1.3783,3.5588 -1.3784,1.3784 -3.5839,1.3784 h -7.7189 v -12.8065 h 4.0349 z m 0,6.541 h 2.8821 q 0.7518,0 1.2531,-0.5012 0.5012,-0.5012 0.5012,-1.2781 0,-0.7769 -0.5263,-1.2782 -0.5012,-0.5012 -1.2782,-0.5012 h -2.8319 z" style="font-weight:bold;font-family:Kinetika-Black;-inkscape-font-specification:'Kinetika-Black Bold'" id="path1331" />
      <path d="m -5683.2361,4110.6193 v -4.7868 h 4.3106 v 12.8065 h -4.3106 v -4.4359 h -4.0099 v 4.4359 h -4.2855 v -12.8065 h 4.2855 v 4.7868 z" style="font-weight:bold;font-family:Kinetika-Black;-inkscape-font-specification:'Kinetika-Black Bold'" id="path1333" />
      <path d="m -5676.1688,4118.639 v -12.8065 h 4.035 v 3.0826 h 3.7843 q 2.0801,0 3.4585,1.3784 1.4034,1.3533 1.4034,3.4083 0,2.1553 -1.3784,3.5588 -1.3784,1.3784 -3.5838,1.3784 z m 18.295,-12.8065 v 12.8065 h -4.2354 v -12.8065 z m -14.26,9.6236 h 2.882 q 0.7519,0 1.2531,-0.5012 0.5013,-0.5012 0.5013,-1.2781 0,-0.7769 -0.5263,-1.2782 -0.5013,-0.5012 -1.2782,-0.5012 h -2.8319 z" style="font-weight:bold;font-family:Kinetika-Black;-inkscape-font-specification:'Kinetika-Black Bold'" id="path1335" />
      <path d="m -5646.5961,4112.2733 4.3106,6.3657 h -4.7367 l -2.3558,-3.7593 -2.4059,3.7593 h -4.6113 l 4.2354,-6.3907 -4.1853,-6.4158 h 4.7617 l 2.2054,3.8094 2.431,-3.8094 h 4.6114 z" style="font-weight:bold;font-family:Kinetika-Black;-inkscape-font-specification:'Kinetika-Black Bold'" id="path1337" />
      <path d="m -5881.0219,4126.0632 q 2.7819,0 4.5362,1.7292 1.7794,1.7293 1.7794,4.4861 0,2.8319 -1.8045,4.5361 -1.8044,1.7042 -4.8118,1.7042 h -3.4334 v 4.3106 h -4.3608 v -16.7662 z m -0.7017,8.7214 q 1.1528,0 1.8796,-0.7017 0.7268,-0.7017 0.7268,-1.7794 0,-1.0776 -0.7017,-1.7793 -0.7017,-0.7268 -1.8295,-0.7268 h -3.1076 v 4.9872 z" style="font-weight:bold;font-family:Kinetika-Black;-inkscape-font-specification:'Kinetika-Black Bold'" id="path1339" />
      <path d="m -5871.699,4131.6018 q 1.7543,-1.8796 4.461,-1.8796 2.3307,0 3.8344,1.6791 v -1.3784 h 3.8846 v 12.8065 h -3.8846 v -1.3533 q -1.5288,1.654 -3.8845,1.654 -2.6816,0 -4.4359,-1.8796 -1.7293,-1.9047 -1.7293,-4.8369 0,-2.9322 1.7543,-4.8118 z m 3.2079,6.9922 q 0.827,0.8771 2.1052,0.8771 1.2531,0 2.1051,-0.8771 0.8521,-0.9022 0.8521,-2.2054 0,-1.2531 -0.8521,-2.1303 -0.852,-0.8771 -2.0801,-0.8771 -1.2781,0 -2.1302,0.8771 -0.8521,0.8521 -0.8521,2.1553 0,1.3283 0.8521,2.1804 z" style="font-weight:bold;font-family:Kinetika-Black;-inkscape-font-specification:'Kinetika-Black Bold'" id="path1341" />
      <path d="m -5855.434,4131.5767 q 1.9548,-1.8545 5.1125,-1.8545 2.5062,0 4.2605,1.228 1.7794,1.203 2.2555,3.4084 l -3.8344,1.0526 q -0.2255,-0.9022 -0.9774,-1.4536 -0.7518,-0.5764 -1.7292,-0.5764 -1.3032,0 -2.1303,0.8521 -0.8019,0.8521 -0.8019,2.2054 0,1.3283 0.827,2.1804 0.827,0.852 2.1302,0.852 0.9273,0 1.7042,-0.5513 0.7769,-0.5764 1.0526,-1.4536 l 3.659,1.5288 q -0.6015,1.8295 -2.3307,2.9823 -1.7293,1.1528 -4.2104,1.1528 -3.1076,0 -5.0374,-1.8295 -1.9046,-1.8545 -1.9046,-4.8368 0,-3.0074 1.9548,-4.8871 z" style="font-weight:bold;font-family:Kinetika-Black;-inkscape-font-specification:'Kinetika-Black Bold'" id="path1343" />
      <path d="m -5834.0816,4135.0603 v -5.0374 h 4.2856 v 12.8065 h -4.2856 v -4.3106 q -1.7292,0.4511 -3.1076,0.4511 -2.6566,0 -4.0349,-1.3784 -1.3784,-1.4034 -1.3784,-3.8845 v -3.6841 h 4.2354 v 3.1578 q 0,0.426 0.05,0.7268 0.05,0.3007 0.2256,0.7017 0.2005,0.3759 0.6766,0.5764 0.4762,0.2005 1.203,0.2005 0.9273,0 2.1302,-0.3258 z" style="font-weight:bold;font-family:Kinetika-Black;-inkscape-font-specification:'Kinetika-Black Bold'" id="path1345" />
      <path d="m -5825.7361,4131.6018 q 1.9047,-1.8796 5.0123,-1.8796 3.0074,0 4.862,1.7543 1.8545,1.7543 1.8545,4.5863 0,0.7518 -0.075,1.3282 h -9.6738 q 0.1755,1.1529 1.0025,1.8546 0.827,0.6767 2.0049,0.6767 2.005,0 2.7819,-1.5288 l 3.3582,1.3533 q -0.6014,1.5538 -2.2555,2.4811 -1.6541,0.9022 -3.8344,0.9022 -3.1327,0 -5.0625,-1.8545 -1.9047,-1.8546 -1.9047,-4.8118 0,-2.9824 1.9298,-4.862 z m 5.4885,-5.1376 q 0,-0.9524 0.6516,-1.604 0.6766,-0.6766 1.654,-0.6766 0.9774,0 1.629,0.6766 0.6767,0.6516 0.6767,1.604 0,1.0024 -0.6516,1.654 -0.6767,0.6767 -1.6541,0.6767 -0.9774,0 -1.654,-0.6516 -0.6516,-0.6767 -0.6516,-1.6791 z m -5.4133,0 q 0,-0.9524 0.6516,-1.604 0.6516,-0.6766 1.629,-0.6766 0.9774,0 1.629,0.6766 0.6766,0.6516 0.6766,1.604 0,1.0024 -0.6516,1.654 -0.6766,0.6767 -1.654,0.6767 -0.9774,0 -1.629,-0.6516 -0.6516,-0.6767 -0.6516,-1.6791 z m 1.9548,8.6713 h 5.7641 q -0.2005,-1.0275 -0.9774,-1.6541 -0.7518,-0.6516 -1.8545,-0.6516 -1.0777,0 -1.8796,0.6266 -0.802,0.6265 -1.0526,1.6791 z" style="font-weight:bold;font-family:Kinetika-Black;-inkscape-font-specification:'Kinetika-Black Bold'" id="path1347" />
      <path d="m -5813.055,4130.0229 h 12.2551 v 3.8094 h -3.9848 v 8.9971 h -4.2855 v -8.9971 h -3.9848 z" style="font-weight:bold;font-family:Kinetika-Black;-inkscape-font-specification:'Kinetika-Black Bold'" id="path1349" />
      <path d="m -5797.9179,4131.6269 q 1.9548,-1.9047 5.0374,-1.9047 3.0826,0 5.0374,1.9297 1.9548,1.9047 1.9548,4.8119 0,2.9322 -1.9799,4.8118 -1.9798,1.8545 -5.0123,1.8545 -3.0575,0 -5.0374,-1.8796 -1.9798,-1.9047 -1.9798,-4.7867 0,-2.9072 1.9798,-4.8369 z m 2.9072,6.9671 q 0.8521,0.8771 2.1302,0.8771 1.3032,0 2.1553,-0.852 0.8521,-0.8772 0.8521,-2.2055 0,-1.2781 -0.8521,-2.1553 -0.8521,-0.8771 -2.1302,-0.8771 -1.2782,0 -2.1553,0.8771 -0.8772,0.8772 -0.8772,2.1553 0,1.3283 0.8772,2.1804 z" style="font-weight:bold;font-family:Kinetika-Black;-inkscape-font-specification:'Kinetika-Black Bold'" id="path1351" />
      <path d="m -5773.1821,4135.9876 q 0.9774,0.3759 1.5288,1.1779 0.5764,0.7769 0.5764,1.8295 0,1.7042 -1.203,2.7818 -1.1779,1.0526 -3.0826,1.0526 h -8.4206 v -12.8065 h 8.2953 q 1.629,0 2.6816,0.9524 1.0777,0.9272 1.0777,2.3808 0,1.6791 -1.4536,2.6315 z m -3.8845,-3.1578 h -2.5313 v 2.3057 h 2.4561 q 0.5764,0 0.9523,-0.3258 0.3759,-0.3258 0.3759,-0.827 0,-0.5013 -0.3508,-0.8271 -0.3258,-0.3258 -0.9022,-0.3258 z m -2.5313,7.1927 h 2.8069 q 0.6266,0 1.0025,-0.3509 0.3759,-0.3759 0.3759,-0.9022 0,-0.5012 -0.3508,-0.8521 -0.3509,-0.3508 -0.9273,-0.3508 h -2.9072 z" style="font-weight:bold;font-family:Kinetika-Black;-inkscape-font-specification:'Kinetika-Black Bold'" id="path1353" />
    </g>
  </g>
</svg>
