<?xml version="1.0" encoding="UTF-8" standalone="no"?>
<svg width="517.89136mm" height="150mm" viewBox="0 0 517.89137 150" version="1.1" id="svg10998" inkscape:version="1.1.1 (3bf5ae0d25, 2021-09-20)" sodipodi:docname="mir_logo_en_full.svg" inkscape:export-filename="C:\Users\User\Desktop\MIR Brand Assets\Standart\mir_logo_en_full.png" inkscape:export-xdpi="49.742863" inkscape:export-ydpi="49.742863" xmlns:inkscape="http://www.inkscape.org/namespaces/inkscape" xmlns:sodipodi="http://sodipodi.sourceforge.net/DTD/sodipodi-0.dtd" xmlns="http://www.w3.org/2000/svg" xmlns:svg="http://www.w3.org/2000/svg" xmlns:rdf="http://www.w3.org/1999/02/22-rdf-syntax-ns#" xmlns:cc="http://creativecommons.org/ns#" xmlns:dc="http://purl.org/dc/elements/1.1/">
  <sodipodi:namedview pagecolor="#ffffff" bordercolor="#666666" borderopacity="1" objecttolerance="10" gridtolerance="10" guidetolerance="10" inkscape:pageopacity="0" inkscape:pageshadow="2" inkscape:window-width="1920" inkscape:window-height="991" id="namedview43" showgrid="false" inkscape:zoom="0.30850103" inkscape:cx="596.43237" inkscape:cy="432.73762" inkscape:window-x="-9" inkscape:window-y="-9" inkscape:window-maximized="1" inkscape:current-layer="layer1" inkscape:pagecheckerboard="1" inkscape:document-units="mm" />
  <defs id="defs10992">
    <rect x="-5890.7207" y="4075.6516" width="355.59998" height="133.35001" id="rect10922" />
    <rect x="-5890.7207" y="4075.6516" width="355.59998" height="133.35001" id="rect10987" />
    <rect x="-5890.7207" y="4075.6516" width="355.59998" height="133.35001" id="rect10908" />
    <rect x="-5890.7207" y="4075.6516" width="355.59998" height="133.35001" id="rect11600" />
    <rect x="-5890.7207" y="4075.6516" width="355.59998" height="133.35001" id="rect10930" />
    <rect x="-5890.7207" y="4075.6516" width="355.59998" height="133.35001" id="rect11645" />
    <rect x="-5890.7207" y="4075.6516" width="355.59998" height="133.35001" id="rect10952" />
    <rect x="-5890.7207" y="4075.6516" width="355.59998" height="133.35001" id="rect11774" />
    <rect x="-5890.7207" y="4075.6516" width="355.59998" height="133.35001" id="rect10952-31-4-2" />
  </defs>
  <metadata id="metadata10995">
    <rdf:RDF>
      <cc:Work rdf:about="">
        <dc:format>image/svg+xml</dc:format>
        <dc:type rdf:resource="http://purl.org/dc/dcmitype/StillImage" />
        <dc:creator>
          <cc:Agent>
            <dc:title>Роман Иноземцев</dc:title>
          </cc:Agent>
        </dc:creator>
        <dc:publisher>
          <cc:Agent>
            <dc:title>ООО &quot;Машины Интеллектуальных Расчётов&quot;</dc:title>
          </cc:Agent>
        </dc:publisher>
        <dc:language>Русский</dc:language>
        <cc:license rdf:resource="http://creativecommons.org/publicdomain/zero/1.0/" />
      </cc:Work>
      <cc:License rdf:about="http://creativecommons.org/publicdomain/zero/1.0/">
        <cc:permits rdf:resource="http://creativecommons.org/ns#Reproduction" />
        <cc:permits rdf:resource="http://creativecommons.org/ns#Distribution" />
        <cc:permits rdf:resource="http://creativecommons.org/ns#DerivativeWorks" />
      </cc:License>
    </rdf:RDF>
  </metadata>
  <g inkscape:label="Слой 1" inkscape:groupmode="layer" id="layer1" transform="translate(228.11523,-203.34739)">
    <g id="g214152" transform="matrix(0.49999959,0,0,0.49999959,3000.679,500.81339)">
      <path id="rect214002" style="fill:#22272e;fill-rule:evenodd;stroke-width:17.9977;stroke-linecap:round;stroke-linejoin:round;paint-order:markers stroke fill;stop-color:#000000" d="m -6457.5937,-594.9325 h 300.0002 v 300.00025 h -300.0002 z" />
      <g id="g214150" transform="translate(-66.244414,207.95067)" style="fill:#ffffff;fill-opacity:1;stroke:none">
        <path id="rect214004" style="fill-rule:evenodd;stroke-width:0.666579;stroke-linecap:round;stroke-linejoin:round;paint-order:markers stroke fill;stop-color:#000000" d="m -6380.2461,-791.77173 h 11.1111 v 11.11107 h -11.1111 z" />
        <path id="rect214006" style="fill-rule:evenodd;stroke-width:0.666579;stroke-linecap:round;stroke-linejoin:round;paint-order:markers stroke fill;stop-color:#000000" d="m -6346.9131,-791.77173 h 11.1111 v 11.11107 h -11.1111 z" />
        <path id="rect214008" style="fill-rule:evenodd;stroke-width:0.666579;stroke-linecap:round;stroke-linejoin:round;paint-order:markers stroke fill;stop-color:#000000" d="m -6313.5791,-791.77167 h 11.1111 v 11.11107 h -11.1111 z" />
        <path id="rect214010" style="fill-rule:evenodd;stroke-width:0.666579;stroke-linecap:round;stroke-linejoin:round;paint-order:markers stroke fill;stop-color:#000000" d="m -6280.2461,-791.77167 h 11.1111 v 11.11107 h -11.1111 z" />
        <path id="rect214012" style="fill-rule:evenodd;stroke-width:0.666579;stroke-linecap:round;stroke-linejoin:round;paint-order:markers stroke fill;stop-color:#000000" d="m -6313.5796,-758.43848 h 11.1111 v 11.11107 h -11.1111 z" />
        <path id="rect214014" style="fill-rule:evenodd;stroke-width:0.666579;stroke-linecap:round;stroke-linejoin:round;paint-order:markers stroke fill;stop-color:#000000" d="m -6280.2466,-758.43848 h 11.1111 v 11.11107 h -11.1111 z" />
        <path id="rect214016" style="fill-rule:evenodd;stroke-width:0.666579;stroke-linecap:round;stroke-linejoin:round;paint-order:markers stroke fill;stop-color:#000000" d="m -6313.5791,-725.10541 h 11.1111 v 11.11107 h -11.1111 z" />
        <path id="rect214018" style="fill-rule:evenodd;stroke-width:0.666579;stroke-linecap:round;stroke-linejoin:round;paint-order:markers stroke fill;stop-color:#000000" d="m -6280.2461,-725.10541 h 11.1111 v 11.11107 h -11.1111 z" />
        <path id="rect214020" style="fill-rule:evenodd;stroke-width:0.666579;stroke-linecap:round;stroke-linejoin:round;paint-order:markers stroke fill;stop-color:#000000" d="m -6380.2456,-725.10535 h 11.1111 v 11.11107 h -11.1111 z" />
        <path id="rect214022" style="fill-rule:evenodd;stroke-width:0.666579;stroke-linecap:round;stroke-linejoin:round;paint-order:markers stroke fill;stop-color:#000000" d="m -6346.9126,-725.10535 h 11.1111 v 11.11107 h -11.1111 z" />
        <path id="rect214024" style="fill-rule:evenodd;stroke-width:0.666579;stroke-linecap:round;stroke-linejoin:round;paint-order:markers stroke fill;stop-color:#000000" d="m -6380.2461,-691.77216 h 11.1111 v 11.11107 h -11.1111 z" />
        <path id="rect214026" style="fill-rule:evenodd;stroke-width:0.666579;stroke-linecap:round;stroke-linejoin:round;paint-order:markers stroke fill;stop-color:#000000" d="m -6346.9131,-691.77216 h 11.1111 v 11.11107 h -11.1111 z" />
        <path id="rect214028" style="fill-rule:evenodd;stroke-width:0.666579;stroke-linecap:round;stroke-linejoin:round;paint-order:markers stroke fill;stop-color:#000000" d="m -6380.2456,-625.1059 h 11.1111 v 11.11107 h -11.1111 z" />
        <path id="rect214030" style="fill-rule:evenodd;stroke-width:0.666579;stroke-linecap:round;stroke-linejoin:round;paint-order:markers stroke fill;stop-color:#000000" d="m -6346.9126,-625.1059 h 11.1111 v 11.11107 h -11.1111 z" />
        <path id="rect214032" style="fill-rule:evenodd;stroke-width:0.666579;stroke-linecap:round;stroke-linejoin:round;paint-order:markers stroke fill;stop-color:#000000" d="m -6380.2456,-591.77264 h 11.1111 v 11.11107 h -11.1111 z" />
        <path id="rect214034" style="fill-rule:evenodd;stroke-width:0.666579;stroke-linecap:round;stroke-linejoin:round;paint-order:markers stroke fill;stop-color:#000000" d="m -6346.9126,-591.77264 h 11.1111 v 11.11107 h -11.1111 z" />
        <path id="rect214036" style="fill-rule:evenodd;stroke-width:0.666579;stroke-linecap:round;stroke-linejoin:round;paint-order:markers stroke fill;stop-color:#000000" d="m -6313.5796,-591.77264 h 11.1111 v 11.11107 h -11.1111 z" />
        <path id="rect214038" style="fill-rule:evenodd;stroke-width:0.666579;stroke-linecap:round;stroke-linejoin:round;paint-order:markers stroke fill;stop-color:#000000" d="m -6280.2466,-591.77264 h 11.1111 v 11.11107 h -11.1111 z" />
        <path id="rect214040" style="fill-rule:evenodd;stroke-width:0.666579;stroke-linecap:round;stroke-linejoin:round;paint-order:markers stroke fill;stop-color:#000000" d="m -6246.9121,-591.77264 h 11.1111 v 11.11107 h -11.1111 z" />
        <path id="rect214042" style="fill-rule:evenodd;stroke-width:0.666579;stroke-linecap:round;stroke-linejoin:round;paint-order:markers stroke fill;stop-color:#000000" d="m -6213.5791,-591.77264 h 11.1111 v 11.11107 h -11.1111 z" />
        <path id="rect214044" style="fill-rule:evenodd;stroke-width:0.666579;stroke-linecap:round;stroke-linejoin:round;paint-order:markers stroke fill;stop-color:#000000" d="m -6180.2456,-591.77264 h 11.1111 v 11.11107 h -11.1111 z" />
        <path id="rect214046" style="fill-rule:evenodd;stroke-width:0.666579;stroke-linecap:round;stroke-linejoin:round;paint-order:markers stroke fill;stop-color:#000000" d="m -6146.9126,-591.77264 h 11.1111 v 11.11107 h -11.1111 z" />
        <path id="rect214048" style="fill-rule:evenodd;stroke-width:0.666579;stroke-linecap:round;stroke-linejoin:round;paint-order:markers stroke fill;stop-color:#000000" d="m -6380.2466,-525.10632 h 11.1111 v 11.11107 h -11.1111 z" />
        <path id="rect214050" style="fill-rule:evenodd;stroke-width:0.666579;stroke-linecap:round;stroke-linejoin:round;paint-order:markers stroke fill;stop-color:#000000" d="m -6380.2461,-558.43945 h 11.1111 v 11.11107 h -11.1111 z" />
        <path id="rect214052" style="fill-rule:evenodd;stroke-width:0.666579;stroke-linecap:round;stroke-linejoin:round;paint-order:markers stroke fill;stop-color:#000000" d="m -6313.5791,-558.43945 h 11.1111 v 11.11107 h -11.1111 z" />
        <path id="rect214054" style="fill-rule:evenodd;stroke-width:0.666579;stroke-linecap:round;stroke-linejoin:round;paint-order:markers stroke fill;stop-color:#000000" d="m -6280.2461,-558.43945 h 11.1111 v 11.11107 h -11.1111 z" />
        <path id="rect214056" style="fill-rule:evenodd;stroke-width:0.666579;stroke-linecap:round;stroke-linejoin:round;paint-order:markers stroke fill;stop-color:#000000" d="m -6213.5791,-558.43945 h 11.1111 v 11.11107 h -11.1111 z" />
        <path id="rect214058" style="fill-rule:evenodd;stroke-width:0.666579;stroke-linecap:round;stroke-linejoin:round;paint-order:markers stroke fill;stop-color:#000000" d="m -6180.2461,-558.43945 h 11.1111 v 11.11107 h -11.1111 z" />
        <path id="rect214060" style="fill-rule:evenodd;stroke-width:0.666579;stroke-linecap:round;stroke-linejoin:round;paint-order:markers stroke fill;stop-color:#000000" d="m -6113.5791,-558.43945 h 11.1111 v 11.11107 h -11.1111 z" />
        <path id="rect214062" style="fill-rule:evenodd;stroke-width:0.666579;stroke-linecap:round;stroke-linejoin:round;paint-order:markers stroke fill;stop-color:#000000" d="m -6113.5791,-525.10632 h 11.1111 v 11.11107 h -11.1111 z" />
        <path id="rect214064" style="fill-rule:evenodd;stroke-width:0.666579;stroke-linecap:round;stroke-linejoin:round;paint-order:markers stroke fill;stop-color:#000000" d="m -6113.5791,-591.77264 h 11.1111 v 11.11107 h -11.1111 z" />
        <path id="rect214066" style="fill-rule:evenodd;stroke-width:0.666579;stroke-linecap:round;stroke-linejoin:round;paint-order:markers stroke fill;stop-color:#000000" d="m -6113.5786,-625.10583 h 11.1111 v 11.11107 h -11.1111 z" />
        <path id="rect214068" style="fill-rule:evenodd;stroke-width:0.666579;stroke-linecap:round;stroke-linejoin:round;paint-order:markers stroke fill;stop-color:#000000" d="m -6113.5786,-658.43896 h 11.1111 v 11.11107 h -11.1111 z" />
        <path id="rect214070" style="fill-rule:evenodd;stroke-width:0.666579;stroke-linecap:round;stroke-linejoin:round;paint-order:markers stroke fill;stop-color:#000000" d="m -6113.5786,-691.77216 h 11.1111 v 11.11107 h -11.1111 z" />
        <path id="rect214072" style="fill-rule:evenodd;stroke-width:0.666579;stroke-linecap:round;stroke-linejoin:round;paint-order:markers stroke fill;stop-color:#000000" d="m -6180.2456,-658.43896 h 11.1111 v 11.11107 h -11.1111 z" />
        <path id="rect214074" style="fill-rule:evenodd;stroke-width:0.666579;stroke-linecap:round;stroke-linejoin:round;paint-order:markers stroke fill;stop-color:#000000" d="m -6113.5791,-725.10535 h 11.1111 v 11.11107 h -11.1111 z" />
        <path id="rect214076" style="fill-rule:evenodd;stroke-width:0.666579;stroke-linecap:round;stroke-linejoin:round;paint-order:markers stroke fill;stop-color:#000000" d="m -6113.5791,-758.43848 h 11.1111 v 11.11107 h -11.1111 z" />
        <path id="rect214078" style="fill-rule:evenodd;stroke-width:0.666579;stroke-linecap:round;stroke-linejoin:round;paint-order:markers stroke fill;stop-color:#000000" d="m -6113.5791,-791.77167 h 11.1111 v 11.11107 h -11.1111 z" />
        <path id="rect214080" style="fill-rule:evenodd;stroke-width:0.666579;stroke-linecap:round;stroke-linejoin:round;paint-order:markers stroke fill;stop-color:#000000" d="m -6313.5791,-691.77216 h 11.1111 v 11.11107 h -11.1111 z" />
        <path id="rect214082" style="fill-rule:evenodd;stroke-width:0.666579;stroke-linecap:round;stroke-linejoin:round;paint-order:markers stroke fill;stop-color:#000000" d="m -6313.5791,-658.43896 h 11.1111 v 11.11107 h -11.1111 z" />
        <path id="rect214084" style="fill-rule:evenodd;stroke-width:0.666579;stroke-linecap:round;stroke-linejoin:round;paint-order:markers stroke fill;stop-color:#000000" d="m -6313.5791,-625.10583 h 11.1111 v 11.11107 h -11.1111 z" />
        <path id="rect214086" style="fill-rule:evenodd;stroke-width:0.666579;stroke-linecap:round;stroke-linejoin:round;paint-order:markers stroke fill;stop-color:#000000" d="m -6380.2461,-658.43896 h 11.1111 v 11.11107 h -11.1111 z" />
        <path id="rect214088" style="fill-rule:evenodd;stroke-width:0.666579;stroke-linecap:round;stroke-linejoin:round;paint-order:markers stroke fill;stop-color:#000000" d="m -6346.9136,-525.10632 h 11.1111 v 11.11107 h -11.1111 z" />
        <path id="rect214090" style="fill-rule:evenodd;stroke-width:0.666579;stroke-linecap:round;stroke-linejoin:round;paint-order:markers stroke fill;stop-color:#000000" d="m -6313.5806,-525.10632 h 11.1111 v 11.11107 h -11.1111 z" />
        <path id="rect214092" style="fill-rule:evenodd;stroke-width:0.666579;stroke-linecap:round;stroke-linejoin:round;paint-order:markers stroke fill;stop-color:#000000" d="m -6280.2476,-525.10632 h 11.1111 v 11.11107 h -11.1111 z" />
        <path id="rect214094" style="fill-rule:evenodd;stroke-width:0.666579;stroke-linecap:round;stroke-linejoin:round;paint-order:markers stroke fill;stop-color:#000000" d="m -6246.9131,-525.10632 h 11.1111 v 11.11107 h -11.1111 z" />
        <path id="rect214096" style="fill-rule:evenodd;stroke-width:0.666579;stroke-linecap:round;stroke-linejoin:round;paint-order:markers stroke fill;stop-color:#000000" d="m -6213.5801,-525.10632 h 11.1111 v 11.11107 h -11.1111 z" />
        <path id="rect214098" style="fill-rule:evenodd;stroke-width:0.666579;stroke-linecap:round;stroke-linejoin:round;paint-order:markers stroke fill;stop-color:#000000" d="m -6180.2466,-525.10632 h 11.1111 v 11.11107 h -11.1111 z" />
        <path id="rect214100" style="fill-rule:evenodd;stroke-width:0.666579;stroke-linecap:round;stroke-linejoin:round;paint-order:markers stroke fill;stop-color:#000000" d="m -6146.9136,-525.10632 h 11.1111 v 11.11107 h -11.1111 z" />
        <path id="rect214102" style="fill-rule:evenodd;stroke-width:0.666579;stroke-linecap:round;stroke-linejoin:round;paint-order:markers stroke fill;stop-color:#000000" d="m -6180.2456,-625.10583 h 11.1111 v 11.11107 h -11.1111 z" />
        <path id="rect214104" style="fill-rule:evenodd;stroke-width:0.666579;stroke-linecap:round;stroke-linejoin:round;paint-order:markers stroke fill;stop-color:#000000" d="m -6146.9126,-625.10583 h 11.1111 v 11.11107 h -11.1111 z" />
        <path id="rect214106" style="fill-rule:evenodd;stroke-width:0.666579;stroke-linecap:round;stroke-linejoin:round;paint-order:markers stroke fill;stop-color:#000000" d="m -6180.2451,-691.77216 h 11.1111 v 11.11107 h -11.1111 z" />
        <path id="rect214108" style="fill-rule:evenodd;stroke-width:0.666579;stroke-linecap:round;stroke-linejoin:round;paint-order:markers stroke fill;stop-color:#000000" d="m -6146.9121,-691.77216 h 11.1111 v 11.11107 h -11.1111 z" />
        <path id="rect214110" style="fill-rule:evenodd;stroke-width:0.666579;stroke-linecap:round;stroke-linejoin:round;paint-order:markers stroke fill;stop-color:#000000" d="m -6180.2461,-725.10535 h 11.1111 v 11.11107 h -11.1111 z" />
        <path id="rect214112" style="fill-rule:evenodd;stroke-width:0.666579;stroke-linecap:round;stroke-linejoin:round;paint-order:markers stroke fill;stop-color:#000000" d="m -6146.9131,-725.10535 h 11.1111 v 11.11107 h -11.1111 z" />
        <path id="rect214114" style="fill-rule:evenodd;stroke-width:0.666579;stroke-linecap:round;stroke-linejoin:round;paint-order:markers stroke fill;stop-color:#000000" d="m -6246.9131,-725.10535 h 11.1111 v 11.11107 h -11.1111 z" />
        <path id="rect214116" style="fill-rule:evenodd;stroke-width:0.666579;stroke-linecap:round;stroke-linejoin:round;paint-order:markers stroke fill;stop-color:#000000" d="m -6213.5801,-725.10535 h 11.1111 v 11.11107 h -11.1111 z" />
        <path id="rect214118" style="fill-rule:evenodd;stroke-width:0.666579;stroke-linecap:round;stroke-linejoin:round;paint-order:markers stroke fill;stop-color:#000000" d="m -6213.5791,-758.43848 h 11.1111 v 11.11107 h -11.1111 z" />
        <path id="rect214120" style="fill-rule:evenodd;stroke-width:0.666579;stroke-linecap:round;stroke-linejoin:round;paint-order:markers stroke fill;stop-color:#000000" d="m -6180.2461,-758.43848 h 11.1111 v 11.11107 h -11.1111 z" />
        <path id="rect214122" style="fill-rule:evenodd;stroke-width:0.666579;stroke-linecap:round;stroke-linejoin:round;paint-order:markers stroke fill;stop-color:#000000" d="m -6246.9131,-791.77167 h 11.1111 v 11.11107 h -11.1111 z" />
        <path id="rect214124" style="fill-rule:evenodd;stroke-width:0.666579;stroke-linecap:round;stroke-linejoin:round;paint-order:markers stroke fill;stop-color:#000000" d="m -6213.5801,-791.77167 h 11.1111 v 11.11107 h -11.1111 z" />
        <path id="rect214126" style="fill-rule:evenodd;stroke-width:0.666579;stroke-linecap:round;stroke-linejoin:round;paint-order:markers stroke fill;stop-color:#000000" d="m -6180.2461,-791.77173 h 11.1111 v 11.11107 h -11.1111 z" />
        <path id="rect214128" style="fill-rule:evenodd;stroke-width:0.666579;stroke-linecap:round;stroke-linejoin:round;paint-order:markers stroke fill;stop-color:#000000" d="m -6146.9131,-791.77173 h 11.1111 v 11.11107 h -11.1111 z" />
        <path id="rect214130" style="fill-rule:evenodd;stroke-width:0.666579;stroke-linecap:round;stroke-linejoin:round;paint-order:markers stroke fill;stop-color:#000000" d="m -6380.2461,-758.43848 h 11.1111 v 11.11107 h -11.1111 z" />
        <path id="rect214132" style="fill-rule:evenodd;stroke-width:1.99972;stroke-linecap:round;stroke-linejoin:round;paint-order:markers stroke fill;stop-color:#000000" d="m -6358.0239,-769.54956 h 33.333 v 33.33301 h -33.333 z" />
        <path id="rect214134" style="fill-rule:evenodd;stroke-width:1.99972;stroke-linecap:round;stroke-linejoin:round;paint-order:markers stroke fill;stop-color:#000000" d="m -6258.0239,-769.54956 h 33.333 v 33.33301 h -33.333 z" />
        <path id="rect214136" style="fill-rule:evenodd;stroke-width:1.99972;stroke-linecap:round;stroke-linejoin:round;paint-order:markers stroke fill;stop-color:#000000" d="m -6158.0239,-769.54944 h 33.333 v 33.33301 h -33.333 z" />
        <path id="rect214138" style="fill-rule:evenodd;stroke-width:1.99972;stroke-linecap:round;stroke-linejoin:round;paint-order:markers stroke fill;stop-color:#000000" inkscape:transform-center-x="-0.29232605" inkscape:transform-center-y="-8.1851294" d="m -6158.0234,-669.54987 h 33.333 v 33.33301 h -33.333 z" />
        <path id="rect214140" style="fill-rule:evenodd;stroke-width:1.99972;stroke-linecap:round;stroke-linejoin:round;paint-order:markers stroke fill;stop-color:#000000" d="m -6158.0239,-569.55054 h 33.333 v 33.33301 h -33.333 z" />
        <path id="rect214142" style="fill-rule:evenodd;stroke-width:1.99972;stroke-linecap:round;stroke-linejoin:round;paint-order:markers stroke fill;stop-color:#000000" d="m -6258.0239,-569.55042 h 33.333 v 33.33301 h -33.333 z" />
        <path id="rect214144" style="fill-rule:evenodd;stroke-width:1.99972;stroke-linecap:round;stroke-linejoin:round;paint-order:markers stroke fill;stop-color:#000000" inkscape:transform-center-x="-5.554195" d="m -6358.0239,-569.55054 h 33.333 v 33.33301 h -33.333 z" />
        <path id="rect214146" style="fill-rule:evenodd;stroke-width:1.99972;stroke-linecap:round;stroke-linejoin:round;paint-order:markers stroke fill;stop-color:#000000" d="m -6358.0239,-669.55005 h 33.333 v 33.33301 h -33.333 z" />
        <path id="rect214148" style="fill-rule:evenodd;stroke-width:5.99914;stroke-linecap:round;stroke-linejoin:round;paint-order:markers stroke fill;stop-color:#000000" d="m -6291.3569,-702.88251 h 99.9987 v 99.99877 h -99.9987 z" />
      </g>
    </g>
    <g aria-label="Machine  Intelligence  Research" transform="matrix(2.1634266,0,0,2.1634266,12717.66,-8611.775)" id="text10942-5-3-0" style="font-size:25.0616px;line-height:0.95;white-space:pre;shape-inside:url(#rect10952-31-4-2);fill:#22272e">
      <path d="m -5884.8814,4077.6823 5.3883,8.8468 5.3882,-8.8468 h 4.2104 v 16.7662 h -4.2104 v -9.4231 l -3.9597,6.2403 h -2.8821 l -3.9347,-6.2403 v 9.4231 h -4.2354 v -16.7662 z" style="font-weight:bold;font-family:Kinetika-Black;-inkscape-font-specification:'Kinetika-Black Bold'" id="path1195" />
      <path d="m -5865.8847,4083.2209 q 1.7543,-1.8796 4.461,-1.8796 2.3307,0 3.8344,1.6792 v -1.3784 h 3.8846 v 12.8064 h -3.8846 v -1.3533 q -1.5288,1.6541 -3.8845,1.6541 -2.6816,0 -4.4359,-1.8796 -1.7293,-1.9047 -1.7293,-4.8369 0,-2.9322 1.7543,-4.8119 z m 3.2079,6.9922 q 0.827,0.8772 2.1052,0.8772 1.2531,0 2.1051,-0.8772 0.8521,-0.9022 0.8521,-2.2054 0,-1.2531 -0.8521,-2.1302 -0.852,-0.8772 -2.0801,-0.8772 -1.2781,0 -2.1302,0.8772 -0.8521,0.8521 -0.8521,2.1553 0,1.3282 0.8521,2.1803 z" style="font-weight:bold;font-family:Kinetika-Black;-inkscape-font-specification:'Kinetika-Black Bold'" id="path1197" />
      <path d="m -5849.6197,4083.1959 q 1.9548,-1.8546 5.1125,-1.8546 2.5062,0 4.2605,1.228 1.7794,1.203 2.2555,3.4084 l -3.8344,1.0526 q -0.2255,-0.9022 -0.9774,-1.4536 -0.7518,-0.5764 -1.7292,-0.5764 -1.3032,0 -2.1303,0.8521 -0.8019,0.8521 -0.8019,2.2054 0,1.3283 0.827,2.1804 0.827,0.8521 2.1302,0.8521 0.9273,0 1.7042,-0.5514 0.7769,-0.5764 1.0526,-1.4535 l 3.659,1.5287 q -0.6015,1.8295 -2.3307,2.9823 -1.7293,1.1529 -4.2104,1.1529 -3.1076,0 -5.0374,-1.8295 -1.9046,-1.8546 -1.9046,-4.8369 0,-3.0074 1.9548,-4.887 z" style="font-weight:bold;font-family:Kinetika-Black;-inkscape-font-specification:'Kinetika-Black Bold'" id="path1199" />
      <path d="m -5836.1867,4094.4485 v -17.7436 h 4.2354 v 5.8394 q 1.4285,-1.1779 3.4334,-1.1779 2.2305,0 3.6089,1.4034 1.4034,1.3784 1.4034,3.5838 v 8.0949 h -4.2354 v -7.1676 q 0,-1.0024 -0.5513,-1.6039 -0.5514,-0.6266 -1.4286,-0.6266 -0.9523,0 -1.6039,0.7268 -0.6265,0.7268 -0.6265,1.8796 v 6.7917 z" style="font-weight:bold;font-family:Kinetika-Black;-inkscape-font-specification:'Kinetika-Black Bold'" id="path1201" />
      <path d="m -5820.8992,4094.4485 v -12.8064 h 4.2605 v 12.8064 z m -0.3509,-16.5406 q 0,-1.0526 0.7018,-1.7543 0.7267,-0.7268 1.7793,-0.7268 1.0526,0 1.7543,0.7268 0.7268,0.7017 0.7268,1.7543 0,1.0275 -0.7017,1.7292 -0.7268,0.7268 -1.7794,0.7268 -1.0526,0 -1.7793,-0.7017 -0.7018,-0.7268 -0.7018,-1.7543 z" style="font-weight:bold;font-family:Kinetika-Black;-inkscape-font-specification:'Kinetika-Black Bold'" id="path1203" />
      <path d="m -5809.8471,4081.6421 v 1.253 q 1.4536,-1.5287 3.634,-1.5287 2.2304,0 3.6088,1.3784 1.3784,1.3784 1.3784,3.6088 v 8.0949 h -4.2103 v -7.2177 q 0,-0.9774 -0.5514,-1.5789 -0.5513,-0.6265 -1.4285,-0.6265 -0.9523,0 -1.6039,0.7268 -0.6266,0.7268 -0.6266,1.8796 v 6.8167 h -4.2354 v -12.8064 z" style="font-weight:bold;font-family:Kinetika-Black;-inkscape-font-specification:'Kinetika-Black Bold'" id="path1205" />
      <path d="m -5799.221,4088.0829 q 0,-2.9823 1.9047,-4.862 1.9297,-1.8796 5.0374,-1.8796 3.0074,0 4.8619,1.7543 1.8546,1.7544 1.8546,4.5863 0,0.7519 -0.075,1.3283 h -9.6738 q 0.1755,1.1528 1.0025,1.8545 0.827,0.6767 2.0049,0.6767 2.0049,0 2.7819,-1.5288 l 3.3582,1.3534 q -0.6015,1.5538 -2.2555,2.4811 -1.6541,0.9022 -3.8345,0.9022 -3.1327,0 -5.0624,-1.8546 -1.9047,-1.8545 -1.9047,-4.8118 z m 3.9597,-1.3283 h 5.7642 q -0.2005,-1.0275 -0.9774,-1.654 -0.7518,-0.6516 -1.8545,-0.6516 -1.0777,0 -1.8797,0.6265 -0.8019,0.6265 -1.0526,1.6791 z" style="font-weight:bold;font-family:Kinetika-Black;-inkscape-font-specification:'Kinetika-Black Bold'" id="path1207" />
      <path d="m -5889.1168,4118.639 v -16.7662 h 4.4109 v 16.7662 z" style="font-weight:bold;font-family:Kinetika-Black;-inkscape-font-specification:'Kinetika-Black Bold'" id="path1209" />
      <path d="m -5877.6887,4105.8325 v 1.2531 q 1.4536,-1.5288 3.6339,-1.5288 2.2305,0 3.6089,1.3784 1.3784,1.3784 1.3784,3.6089 v 8.0949 h -4.2104 v -7.2178 q 0,-0.9774 -0.5513,-1.5788 -0.5514,-0.6266 -1.4285,-0.6266 -0.9524,0 -1.604,0.7268 -0.6265,0.7268 -0.6265,1.8796 v 6.8168 h -4.2354 v -12.8065 z" style="font-weight:bold;font-family:Kinetika-Black;-inkscape-font-specification:'Kinetika-Black Bold'" id="path1211" />
      <path d="m -5867.3383,4105.8325 h 1.9548 v -3.6841 h 4.2103 v 3.6841 h 3.1828 v 3.5337 h -3.1828 v 4.2103 q 0,0.8521 0.3258,1.2782 0.3509,0.401 1.2531,0.401 0.9523,0 2.03,-0.401 v 3.4334 q -1.629,0.6516 -3.2831,0.6516 -2.3056,0 -3.4334,-1.1528 -1.1027,-1.1529 -1.1027,-3.1828 v -5.2379 h -1.9548 z" style="font-weight:bold;font-family:Kinetika-Black;-inkscape-font-specification:'Kinetika-Black Bold'" id="path1213" />
      <path d="m -5856.4616,4112.2733 q 0,-2.9823 1.9046,-4.8619 1.9298,-1.8796 5.0374,-1.8796 3.0074,0 4.862,1.7543 1.8545,1.7543 1.8545,4.5862 0,0.7519 -0.075,1.3283 h -9.6737 q 0.1754,1.1528 1.0024,1.8546 0.8271,0.6766 2.005,0.6766 2.0049,0 2.7818,-1.5287 l 3.3583,1.3533 q -0.6015,1.5538 -2.2556,2.4811 -1.6541,0.9022 -3.8344,0.9022 -3.1327,0 -5.0625,-1.8545 -1.9046,-1.8546 -1.9046,-4.8119 z m 3.9597,-1.3282 h 5.7642 q -0.2005,-1.0276 -0.9774,-1.6541 -0.7519,-0.6516 -1.8546,-0.6516 -1.0777,0 -1.8796,0.6265 -0.802,0.6266 -1.0526,1.6792 z" style="font-weight:bold;font-family:Kinetika-Black;-inkscape-font-specification:'Kinetika-Black Bold'" id="path1215" />
      <path d="m -5836.4124,4101.0708 v 17.5682 h -4.2855 v -17.5682 z" style="font-weight:bold;font-family:Kinetika-Black;-inkscape-font-specification:'Kinetika-Black Bold'" id="path1217" />
      <path d="m -5829.3701,4101.0708 v 17.5682 h -4.2856 v -17.5682 z" style="font-weight:bold;font-family:Kinetika-Black;-inkscape-font-specification:'Kinetika-Black Bold'" id="path1219" />
      <path d="m -5826.6134,4118.639 v -12.8065 h 4.2605 v 12.8065 z m -0.3509,-16.5407 q 0,-1.0526 0.7018,-1.7543 0.7267,-0.7268 1.7793,-0.7268 1.0526,0 1.7543,0.7268 0.7268,0.7017 0.7268,1.7543 0,1.0275 -0.7017,1.7293 -0.7268,0.7268 -1.7794,0.7268 -1.0526,0 -1.7793,-0.7018 -0.7018,-0.7268 -0.7018,-1.7543 z" style="font-weight:bold;font-family:Kinetika-Black;-inkscape-font-specification:'Kinetika-Black Bold'" id="path1221" />
      <path d="m -5818.4434,4107.3863 q 1.7293,-1.8295 4.3357,-1.8295 2.3307,0 3.9096,1.5037 v -1.228 h 3.9848 v 11.7038 q 0,3.0825 -2.0049,4.8369 -1.9799,1.7543 -5.4885,1.7543 -2.8069,0 -5.3883,-1.203 v -3.5838 q 2.5062,1.3032 5.0374,1.3032 1.7794,0 2.8069,-0.827 1.0275,-0.802 1.0275,-2.3558 v -0.6015 q -1.5036,1.5037 -3.9096,1.5037 -2.6314,0 -4.3607,-1.7794 -1.7042,-1.8044 -1.7042,-4.5863 0,-2.7818 1.7543,-4.6113 z m 2.3809,4.7367 q 0,1.253 0.827,2.0801 0.8271,0.8019 2.0551,0.8019 1.2531,0 2.0801,-0.827 0.827,-0.827 0.827,-2.055 0,-1.2531 -0.827,-2.0802 -0.802,-0.8521 -2.03,-0.8521 -1.2781,0 -2.1052,0.8521 -0.827,0.8271 -0.827,2.0802 z" style="font-weight:bold;font-family:Kinetika-Black;-inkscape-font-specification:'Kinetika-Black Bold'" id="path1223" />
      <path d="m -5804.1081,4112.2733 q 0,-2.9823 1.9046,-4.8619 1.9298,-1.8796 5.0374,-1.8796 3.0074,0 4.862,1.7543 1.8545,1.7543 1.8545,4.5862 0,0.7519 -0.075,1.3283 h -9.6737 q 0.1754,1.1528 1.0024,1.8546 0.8271,0.6766 2.005,0.6766 2.0049,0 2.7818,-1.5287 l 3.3583,1.3533 q -0.6015,1.5538 -2.2556,2.4811 -1.6541,0.9022 -3.8344,0.9022 -3.1327,0 -5.0625,-1.8545 -1.9046,-1.8546 -1.9046,-4.8119 z m 3.9597,-1.3282 h 5.7642 q -0.2005,-1.0276 -0.9774,-1.6541 -0.7519,-0.6516 -1.8546,-0.6516 -1.0776,0 -1.8796,0.6265 -0.802,0.6266 -1.0526,1.6792 z" style="font-weight:bold;font-family:Kinetika-Black;-inkscape-font-specification:'Kinetika-Black Bold'" id="path1225" />
      <path d="m -5784.3095,4105.8325 v 1.2531 q 1.4536,-1.5288 3.6339,-1.5288 2.2305,0 3.6089,1.3784 1.3784,1.3784 1.3784,3.6089 v 8.0949 h -4.2104 v -7.2178 q 0,-0.9774 -0.5513,-1.5788 -0.5514,-0.6266 -1.4285,-0.6266 -0.9524,0 -1.604,0.7268 -0.6265,0.7268 -0.6265,1.8796 v 6.8168 h -4.2354 v -12.8065 z" style="font-weight:bold;font-family:Kinetika-Black;-inkscape-font-specification:'Kinetika-Black Bold'" id="path1227" />
      <path d="m -5771.7286,4107.3863 q 1.9548,-1.8545 5.1125,-1.8545 2.5062,0 4.2605,1.228 1.7794,1.2029 2.2556,3.4084 l -3.8345,1.0525 q -0.2255,-0.9022 -0.9774,-1.4535 -0.7518,-0.5765 -1.7292,-0.5765 -1.3032,0 -2.1303,0.8521 -0.8019,0.8521 -0.8019,2.2055 0,1.3282 0.827,2.1803 0.827,0.8521 2.1302,0.8521 0.9273,0 1.7042,-0.5513 0.7769,-0.5765 1.0526,-1.4536 l 3.659,1.5287 q -0.6015,1.8295 -2.3307,2.9824 -1.7293,1.1528 -4.2104,1.1528 -3.1076,0 -5.0374,-1.8295 -1.9046,-1.8545 -1.9046,-4.8369 0,-3.0074 1.9548,-4.887 z" style="font-weight:bold;font-family:Kinetika-Black;-inkscape-font-specification:'Kinetika-Black Bold'" id="path1229" />
      <path d="m -5758.9222,4112.2733 q 0,-2.9823 1.9047,-4.8619 1.9297,-1.8796 5.0374,-1.8796 3.0074,0 4.8619,1.7543 1.8546,1.7543 1.8546,4.5862 0,0.7519 -0.075,1.3283 h -9.6738 q 0.1755,1.1528 1.0025,1.8546 0.827,0.6766 2.0049,0.6766 2.005,0 2.7819,-1.5287 l 3.3582,1.3533 q -0.6015,1.5538 -2.2555,2.4811 -1.6541,0.9022 -3.8345,0.9022 -3.1327,0 -5.0624,-1.8545 -1.9047,-1.8546 -1.9047,-4.8119 z m 3.9598,-1.3282 h 5.7641 q -0.2005,-1.0276 -0.9774,-1.6541 -0.7518,-0.6516 -1.8545,-0.6516 -1.0777,0 -1.8797,0.6265 -0.8019,0.6266 -1.0525,1.6792 z" style="font-weight:bold;font-family:Kinetika-Black;-inkscape-font-specification:'Kinetika-Black Bold'" id="path1231" />
      <path d="m -5880.6459,4126.0632 q 2.5562,0 4.2103,1.6541 1.6791,1.654 1.6791,4.1852 0,1.8295 -0.8521,3.233 -0.827,1.4034 -2.3056,2.0801 l 3.4835,5.6138 h -5.1877 l -2.7819,-4.8619 h -2.3557 v 4.8619 h -4.3608 v -16.7662 z m -4.1101,8.3706 h 3.1577 q 1.0777,0 1.7543,-0.6266 0.7018,-0.6516 0.7018,-1.6791 0,-1.0025 -0.6767,-1.6541 -0.6767,-0.6766 -1.7042,-0.6766 h -3.2329 z" style="font-weight:bold;font-family:Kinetika-Black;-inkscape-font-specification:'Kinetika-Black Bold'" id="path1233" />
      <path d="m -5873.2779,4136.4638 q 0,-2.9824 1.9047,-4.862 1.9297,-1.8796 5.0373,-1.8796 3.0074,0 4.862,1.7543 1.8546,1.7543 1.8546,4.5863 0,0.7518 -0.075,1.3282 h -9.6738 q 0.1754,1.1529 1.0025,1.8546 0.827,0.6767 2.0049,0.6767 2.0049,0 2.7818,-1.5288 l 3.3583,1.3533 q -0.6015,1.5538 -2.2556,2.4811 -1.654,0.9022 -3.8344,0.9022 -3.1327,0 -5.0624,-1.8545 -1.9047,-1.8546 -1.9047,-4.8118 z m 3.9597,-1.3283 h 5.7642 q -0.2005,-1.0275 -0.9774,-1.6541 -0.7519,-0.6516 -1.8546,-0.6516 -1.0776,0 -1.8796,0.6266 -0.802,0.6265 -1.0526,1.6791 z" style="font-weight:bold;font-family:Kinetika-Black;-inkscape-font-specification:'Kinetika-Black Bold'" id="path1235" />
      <path d="m -5857.0631,4138.2431 q 0.9523,0.6516 2.3558,1.1529 1.4285,0.4761 2.6565,0.4761 1.9047,0 1.9047,-0.9272 0,-0.1254 -0.05,-0.2256 -0.025,-0.1002 -0.1253,-0.1754 -0.075,-0.1003 -0.1754,-0.1504 -0.1002,-0.075 -0.2757,-0.1253 -0.1754,-0.075 -0.3508,-0.1003 -0.1504,-0.05 -0.401,-0.1002 -0.2506,-0.075 -0.4762,-0.1002 -0.2005,-0.025 -0.5513,-0.075 -0.3258,-0.075 -0.5765,-0.1253 -2.3808,-0.4511 -3.5086,-1.3032 -1.1278,-0.8521 -1.1278,-2.6064 0,-1.9298 1.5037,-3.0325 1.5288,-1.1027 4.3106,-1.1027 2.9573,0 5.4635,1.0776 l -1.0526,3.1327 q -2.5563,-1.1277 -4.5863,-1.1277 -1.6039,0 -1.6039,0.8771 0,0.1253 0.025,0.2256 0.05,0.1002 0.1253,0.1754 0.1003,0.075 0.1755,0.1504 0.1002,0.05 0.2756,0.1253 0.1755,0.05 0.3008,0.1002 0.1253,0.05 0.3759,0.1003 0.2506,0.05 0.426,0.1002 0.1755,0.025 0.4762,0.075 0.3258,0.05 0.5263,0.1003 2.6064,0.5012 3.8094,1.3282 1.2029,0.8271 1.2029,2.6565 0,1.9799 -1.654,3.1327 -1.629,1.1529 -4.461,1.1529 -3.7843,0 -6.4158,-1.8045 z" style="font-weight:bold;font-family:Kinetika-Black;-inkscape-font-specification:'Kinetika-Black Bold'" id="path1237" />
      <path d="m -5844.5574,4136.4638 q 0,-2.9824 1.9047,-4.862 1.9297,-1.8796 5.0373,-1.8796 3.0074,0 4.862,1.7543 1.8546,1.7543 1.8546,4.5863 0,0.7518 -0.075,1.3282 h -9.6738 q 0.1754,1.1529 1.0025,1.8546 0.827,0.6767 2.0049,0.6767 2.0049,0 2.7818,-1.5288 l 3.3583,1.3533 q -0.6015,1.5538 -2.2556,2.4811 -1.654,0.9022 -3.8344,0.9022 -3.1327,0 -5.0624,-1.8545 -1.9047,-1.8546 -1.9047,-4.8118 z m 3.9597,-1.3283 h 5.7642 q -0.2005,-1.0275 -0.9774,-1.6541 -0.7519,-0.6516 -1.8546,-0.6516 -1.0776,0 -1.8796,0.6266 -0.802,0.6265 -1.0526,1.6791 z" style="font-weight:bold;font-family:Kinetika-Black;-inkscape-font-specification:'Kinetika-Black Bold'" id="path1239" />
      <path d="m -5827.6659,4131.6018 q 1.7543,-1.8796 4.4609,-1.8796 2.3307,0 3.8344,1.6791 v -1.3784 h 3.8846 v 12.8065 h -3.8846 v -1.3533 q -1.5287,1.654 -3.8845,1.654 -2.6816,0 -4.4359,-1.8796 -1.7293,-1.9047 -1.7293,-4.8369 0,-2.9322 1.7544,-4.8118 z m 3.2078,6.9922 q 0.8271,0.8771 2.1052,0.8771 1.2531,0 2.1052,-0.8771 0.8521,-0.9022 0.8521,-2.2054 0,-1.2531 -0.8521,-2.1303 -0.8521,-0.8771 -2.0801,-0.8771 -1.2782,0 -2.1303,0.8771 -0.8521,0.8521 -0.8521,2.1553 0,1.3283 0.8521,2.1804 z" style="font-weight:bold;font-family:Kinetika-Black;-inkscape-font-specification:'Kinetika-Black Bold'" id="path1241" />
      <path d="m -5812.7293,4142.8294 v -12.8065 h 4.035 v 1.3283 q 1.1778,-1.629 3.3081,-1.629 0.6766,0 1.5538,0.2757 l -0.025,4.1101 q -0.9774,-0.3258 -1.7793,-0.3258 -1.4285,0 -2.1804,0.827 -0.7268,0.802 -0.7268,2.2054 v 6.0148 z" style="font-weight:bold;font-family:Kinetika-Black;-inkscape-font-specification:'Kinetika-Black Bold'" id="path1243" />
      <path d="m -5800.8752,4131.5767 q 1.9548,-1.8545 5.1126,-1.8545 2.5062,0 4.2605,1.228 1.7793,1.203 2.2555,3.4084 l -3.8344,1.0526 q -0.2256,-0.9022 -0.9774,-1.4536 -0.7519,-0.5764 -1.7293,-0.5764 -1.3032,0 -2.1302,0.8521 -0.802,0.8521 -0.802,2.2054 0,1.3283 0.8271,2.1804 0.827,0.852 2.1302,0.852 0.9273,0 1.7042,-0.5513 0.7769,-0.5764 1.0526,-1.4536 l 3.659,1.5288 q -0.6015,1.8295 -2.3308,2.9823 -1.7292,1.1528 -4.2103,1.1528 -3.1077,0 -5.0374,-1.8295 -1.9047,-1.8545 -1.9047,-4.8368 0,-3.0074 1.9548,-4.8871 z" style="font-weight:bold;font-family:Kinetika-Black;-inkscape-font-specification:'Kinetika-Black Bold'" id="path1245" />
      <path d="m -5787.4422,4142.8294 v -17.7436 h 4.2354 v 5.8393 q 1.4285,-1.1779 3.4335,-1.1779 2.2304,0 3.6088,1.4035 1.4035,1.3784 1.4035,3.5838 v 8.0949 h -4.2354 v -7.1676 q 0,-1.0025 -0.5514,-1.604 -0.5513,-0.6265 -1.4285,-0.6265 -0.9523,0 -1.6039,0.7268 -0.6266,0.7268 -0.6266,1.8796 v 6.7917 z" style="font-weight:bold;font-family:Kinetika-Black;-inkscape-font-specification:'Kinetika-Black Bold'" id="path1247" />
    </g>
  </g>
</svg>
