<?xml version="1.0" encoding="UTF-8" standalone="no"?> <svg xmlns:dc="http://purl.org/dc/elements/1.1/" xmlns:cc="http://creativecommons.org/ns#" xmlns:rdf="http://www.w3.org/1999/02/22-rdf-syntax-ns#" xmlns:svg="http://www.w3.org/2000/svg" xmlns="http://www.w3.org/2000/svg" xmlns:sodipodi="http://sodipodi.sourceforge.net/DTD/sodipodi-0.dtd" xmlns:inkscape="http://www.inkscape.org/namespaces/inkscape" width="510.62564mm" height="150.00009mm" viewBox="0 0 510.62565 150.0001" version="1.1" id="svg10998" inkscape:version="1.0.1 (3bc2e813f5, 2020-09-07)" sodipodi:docname="mir_logo_en_full_white.svg"><defs id="defs10992"><rect x="-5890.7207" y="4075.6516" width="355.59998" height="133.35001" id="rect10922"></rect><rect x="-5890.7207" y="4075.6516" width="355.59998" height="133.35001" id="rect10987"></rect><rect x="-5890.7207" y="4075.6516" width="355.59998" height="133.35001" id="rect10908"></rect><rect x="-5890.7207" y="4075.6516" width="355.59998" height="133.35001" id="rect11600"></rect><rect x="-5890.7207" y="4075.6516" width="355.59998" height="133.35001" id="rect10930"></rect><rect x="-5890.7207" y="4075.6516" width="355.59998" height="133.35001" id="rect11645"></rect><rect x="-5890.7207" y="4075.6516" width="355.59998" height="133.35001" id="rect10952"></rect><rect x="-5890.7207" y="4075.6516" width="355.59998" height="133.35001" id="rect11774"></rect><rect x="-5890.7207" y="4075.6516" width="355.59998" height="133.35001" id="rect10954"></rect><rect x="-5890.7207" y="4075.6516" width="355.59998" height="133.35001" id="rect11818"></rect></defs><metadata id="metadata10995"></metadata><g inkscape:label="Слой 1" inkscape:groupmode="layer" id="layer1" transform="translate(265.01779,-7.3478522)"><path id="rect10944" style="fill:#ffffff;fill-opacity:1;fill-rule:evenodd;stroke-width:8.99885;stroke-linecap:round;stroke-linejoin:round;paint-order:markers stroke fill;stop-color:#000000" d="m -265.01779,7.3479433 h 150 V 157.34794 h -150 z"></path><g aria-label="Machine Intelligence Research" transform="matrix(2.1998183,0,0,2.1998183,12896.934,-8959.431)" id="text10948" style="font-style:normal;font-weight:normal;font-size:25.0616px;line-height:0.95;font-family:sans-serif;white-space:pre;shape-inside:url(#rect10954);fill:#ffffff;fill-opacity:1;stroke:none"><path d="m -5885.558,4082.7615 v 12.1047 h -3.5086 v -17.9441 h 5.1627 l 4.1602,10.9269 4.6614,-10.9269 h 4.7116 v 17.9441 h -4.0098 v -11.9794 l -3.9096,9.2227 h -3.4836 z" style="font-style:normal;font-variant:normal;font-weight:bold;font-stretch:normal;font-size:25.0616px;font-family:'Yandex Sans Text';-inkscape-font-specification:'Yandex Sans Text Bold';fill:#ffffff" id="path11853"></path><path d="m -5862.5264,4092.4603 q 0.9523,0 1.5287,-0.4511 0.5764,-0.4762 0.8772,-1.0024 v -1.9047 h -1.2531 q -1.4035,0 -2.0551,0.5012 -0.6516,0.4762 -0.6516,1.2781 0,0.777 0.4261,1.1779 0.426,0.401 1.1278,0.401 z m 2.7818,2.4059 q -0.05,-0.2756 -0.1253,-0.7017 -0.05,-0.4511 -0.1003,-0.8771 -0.5012,0.7267 -1.4285,1.2781 -0.9022,0.5514 -2.3558,0.5514 -0.8019,0 -1.5538,-0.2256 -0.7518,-0.2256 -1.3282,-0.6767 -0.5765,-0.4761 -0.9273,-1.1779 -0.3509,-0.7017 -0.3509,-1.654 0,-2.0551 1.5538,-3.233 1.5789,-1.1779 4.9121,-1.1779 h 1.3283 v -0.3258 q 0,-1.2029 -0.6266,-1.6039 -0.6265,-0.401 -1.7543,-0.401 -1.1278,0 -2.1302,0.3258 -0.9774,0.3007 -1.8295,0.7268 l -0.7519,-2.9823 q 0.9023,-0.4261 2.2806,-0.7519 1.4035,-0.3508 3.0074,-0.3508 1.3032,0 2.3558,0.2756 1.0526,0.2506 1.8045,0.8271 0.7518,0.5764 1.1528,1.5037 0.401,0.9022 0.401,2.1803 v 6.3657 q 0,0.2255 0,0.5263 0.025,0.2756 0.025,0.5764 0.025,0.3007 0.025,0.5764 0.025,0.2506 0.05,0.426 z" style="font-style:normal;font-variant:normal;font-weight:bold;font-stretch:normal;font-size:25.0616px;font-family:'Yandex Sans Text';-inkscape-font-specification:'Yandex Sans Text Bold';fill:#ffffff" id="path11855"></path><path d="m -5846.888,4095.1169 q -1.6791,0 -3.0325,-0.4512 -1.3533,-0.4761 -2.3307,-1.3282 -0.9523,-0.8772 -1.4786,-2.1303 -0.5013,-1.253 -0.5013,-2.857 0,-1.5789 0.5013,-2.8319 0.5263,-1.2531 1.4535,-2.1052 0.9524,-0.8772 2.2305,-1.3283 1.3032,-0.4761 2.8821,-0.4761 1.5037,0 2.5312,0.3258 1.0526,0.3258 1.629,0.7267 l -0.7268,2.832 q -0.6516,-0.426 -1.4034,-0.6265 -0.7518,-0.2256 -1.9047,-0.2256 -1.4536,0 -2.3307,0.9273 -0.8521,0.9022 -0.8521,2.7818 0,1.8796 0.9022,2.8069 0.9022,0.9273 2.6064,0.9273 1.0777,0 1.7794,-0.2506 0.7017,-0.2506 1.3032,-0.6015 l 0.7017,2.8821 q -0.5764,0.401 -1.5538,0.7017 -0.9523,0.3008 -2.4059,0.3008 z" style="font-style:normal;font-variant:normal;font-weight:bold;font-stretch:normal;font-size:25.0616px;font-family:'Yandex Sans Text';-inkscape-font-specification:'Yandex Sans Text Bold';fill:#ffffff" id="path11857"></path><path d="m -5834.0064,4084.6411 q -0.9272,0 -1.629,0.3509 -0.7017,0.3258 -1.1277,0.8521 v 9.0221 h -3.8846 v -17.9441 h 3.8846 v 4.5612 l -0.025,2.2305 h 0.025 q 0.5764,-0.8771 1.5287,-1.4786 0.9774,-0.6265 2.5062,-0.6265 0.9273,0 1.7292,0.2756 0.8271,0.2506 1.4285,0.7769 0.6015,0.5013 0.9273,1.3032 0.3509,0.777 0.3509,1.8295 v 9.0723 h -3.8846 v -8.6713 q 0,-0.8521 -0.5012,-1.2029 -0.4762,-0.3509 -1.3283,-0.3509 z" style="font-style:normal;font-variant:normal;font-weight:bold;font-stretch:normal;font-size:25.0616px;font-family:'Yandex Sans Text';-inkscape-font-specification:'Yandex Sans Text Bold';fill:#ffffff" id="path11859"></path><path d="m -5823.656,4080.6312 q -0.5012,0 -0.9272,-0.1754 -0.401,-0.1754 -0.7268,-0.4762 -0.3258,-0.3258 -0.5013,-0.7267 -0.1754,-0.4261 -0.1754,-0.8772 0,-0.9523 0.6767,-1.5789 0.6766,-0.6516 1.654,-0.6516 0.4762,0 0.9023,0.1755 0.426,0.1754 0.7518,0.4761 0.3258,0.3008 0.5012,0.7017 0.2005,0.401 0.2005,0.8772 0,0.4511 -0.2005,0.8772 -0.1754,0.4009 -0.5012,0.7267 -0.3258,0.3008 -0.7518,0.4762 -0.4261,0.1754 -0.9023,0.1754 z m 1.9548,1.2281 v 13.0069 h -3.8845 v -13.0069 z" style="font-style:normal;font-variant:normal;font-weight:bold;font-stretch:normal;font-size:25.0616px;font-family:'Yandex Sans Text';-inkscape-font-specification:'Yandex Sans Text Bold';fill:#ffffff" id="path11861"></path><path d="m -5812.2279,4084.6411 q -0.9273,0 -1.629,0.3509 -0.7017,0.3258 -1.1278,0.8521 v 9.0221 h -3.8845 v -13.0069 h 3.659 l 0.1503,1.8295 h 0.05 q 0.5513,-0.8772 1.5287,-1.4787 1.0025,-0.6014 2.5312,-0.6014 0.9273,0 1.7293,0.2756 0.827,0.2506 1.4285,0.7769 0.6015,0.5013 0.9273,1.3032 0.3509,0.777 0.3509,1.8295 v 9.0723 h -3.8846 v -8.6713 q 0,-0.8521 -0.5012,-1.2029 -0.4762,-0.3509 -1.3283,-0.3509 z" style="font-style:normal;font-variant:normal;font-weight:bold;font-stretch:normal;font-size:25.0616px;font-family:'Yandex Sans Text';-inkscape-font-specification:'Yandex Sans Text Bold';fill:#ffffff" id="path11863"></path><path d="m -5797.6922,4084.3905 q -2.2305,0 -2.7317,2.4811 h 4.9872 q 0.025,-1.228 -0.5764,-1.8546 -0.5764,-0.6265 -1.6791,-0.6265 z m 5.6138,9.5735 q -0.5012,0.3258 -1.203,0.5764 -0.6014,0.2256 -1.5037,0.401 -0.9022,0.1755 -2.1553,0.1755 -3.8594,0 -5.714,-1.7794 -1.8546,-1.7794 -1.8546,-4.9873 0,-1.5789 0.4762,-2.8319 0.5012,-1.2531 1.3784,-2.1052 0.8772,-0.8772 2.1302,-1.3283 1.2531,-0.4761 2.7568,-0.4761 1.5288,0 2.7818,0.5012 1.2531,0.4762 2.0802,1.4536 0.827,0.9774 1.1528,2.456 0.3258,1.4536 0.025,3.4334 h -8.7465 q 0.2004,1.3283 1.0525,2.005 0.8521,0.6516 2.6566,0.6516 0.9273,0 1.654,-0.1253 0.7519,-0.1504 1.2531,-0.3509 0.6015,-0.2256 1.0275,-0.5012 z" style="font-style:normal;font-variant:normal;font-weight:bold;font-stretch:normal;font-size:25.0616px;font-family:'Yandex Sans Text';-inkscape-font-specification:'Yandex Sans Text Bold';fill:#ffffff" id="path11865"></path><path d="m -5885.0568,4101.53 v 17.9441 h -4.0098 V 4101.53 Z" style="font-style:normal;font-variant:normal;font-weight:bold;font-stretch:normal;font-size:25.0616px;font-family:'Yandex Sans Text';-inkscape-font-specification:'Yandex Sans Text Bold';fill:#ffffff" id="path11867"></path><path d="m -5875.3579,4109.249 q -0.9273,0 -1.6291,0.3509 -0.7017,0.3258 -1.1277,0.8521 v 9.0221 h -3.8846 v -13.0069 h 3.659 l 0.1504,1.8295 h 0.05 q 0.5514,-0.8772 1.5288,-1.4787 1.0024,-0.6014 2.5312,-0.6014 0.9273,0 1.7292,0.2756 0.8271,0.2507 1.4286,0.7769 0.6014,0.5013 0.9272,1.3033 0.3509,0.7769 0.3509,1.8294 v 9.0723 h -3.8846 v -8.6713 q 0,-0.8521 -0.5012,-1.2029 -0.4762,-0.3509 -1.3282,-0.3509 z" style="font-style:normal;font-variant:normal;font-weight:bold;font-stretch:normal;font-size:25.0616px;font-family:'Yandex Sans Text';-inkscape-font-specification:'Yandex Sans Text Bold';fill:#ffffff" id="path11869"></path><path d="m -5858.7923,4119.0732 q -0.5513,0.2756 -1.4034,0.4511 -0.8271,0.2005 -1.8045,0.2005 -2.3557,0 -3.3833,-1.1027 -1.0275,-1.1028 -1.0275,-3.0576 v -6.0649 h -1.5538 v -3.0324 h 1.5538 v -2.7317 h 3.8846 v 2.7317 h 3.6589 v 3.0324 h -3.6589 v 5.664 q 0,0.7518 0.3007,1.1528 0.3258,0.3759 1.0526,0.3759 0.5263,0 0.9774,-0.1504 0.4511,-0.1503 0.7518,-0.3258 l 0.6516,2.8571 z" style="font-style:normal;font-variant:normal;font-weight:bold;font-stretch:normal;font-size:25.0616px;font-family:'Yandex Sans Text';-inkscape-font-specification:'Yandex Sans Text Bold';fill:#ffffff" id="path11871"></path><path d="m -5850.7726,4108.9984 q -2.2305,0 -2.7317,2.4811 h 4.9872 q 0.025,-1.228 -0.5764,-1.8546 -0.5764,-0.6265 -1.6791,-0.6265 z m 5.6138,9.5735 q -0.5013,0.3258 -1.203,0.5764 -0.6015,0.2256 -1.5037,0.401 -0.9022,0.1755 -2.1553,0.1755 -3.8595,0 -5.714,-1.7794 -1.8546,-1.7794 -1.8546,-4.9873 0,-1.5788 0.4762,-2.8319 0.5012,-1.2531 1.3784,-2.1052 0.8771,-0.8772 2.1302,-1.3283 1.2531,-0.4761 2.7568,-0.4761 1.5287,0 2.7818,0.5012 1.2531,0.4762 2.0801,1.4536 0.8271,0.9774 1.1529,2.456 0.3258,1.4536 0.025,3.4334 h -8.7465 q 0.2005,1.3283 1.0526,2.005 0.8521,0.6516 2.6566,0.6516 0.9272,0 1.654,-0.1253 0.7519,-0.1504 1.2531,-0.3509 0.6015,-0.2256 1.0275,-0.5012 z" style="font-style:normal;font-variant:normal;font-weight:bold;font-stretch:normal;font-size:25.0616px;font-family:'Yandex Sans Text';-inkscape-font-specification:'Yandex Sans Text Bold';fill:#ffffff" id="path11873"></path><path d="m -5838.5175,4101.53 v 17.9441 h -3.8846 V 4101.53 Z" style="font-style:normal;font-variant:normal;font-weight:bold;font-stretch:normal;font-size:25.0616px;font-family:'Yandex Sans Text';-inkscape-font-specification:'Yandex Sans Text Bold';fill:#ffffff" id="path11875"></path><path d="m -5831.801,4101.53 v 17.9441 h -3.8846 V 4101.53 Z" style="font-style:normal;font-variant:normal;font-weight:bold;font-stretch:normal;font-size:25.0616px;font-family:'Yandex Sans Text';-inkscape-font-specification:'Yandex Sans Text Bold';fill:#ffffff" id="path11877"></path><path d="m -5827.0143,4105.2392 q -0.5012,0 -0.9273,-0.1755 -0.4009,-0.1754 -0.7268,-0.4761 -0.3258,-0.3258 -0.5012,-0.7268 -0.1754,-0.4261 -0.1754,-0.8772 0,-0.9523 0.6766,-1.5789 0.6767,-0.6516 1.6541,-0.6516 0.4762,0 0.9022,0.1755 0.4261,0.1754 0.7519,0.4761 0.3258,0.3008 0.5012,0.7018 0.2005,0.4009 0.2005,0.8771 0,0.4511 -0.2005,0.8772 -0.1754,0.401 -0.5012,0.7268 -0.3258,0.3007 -0.7519,0.4761 -0.426,0.1755 -0.9022,0.1755 z m 1.9548,1.228 v 13.0069 h -3.8845 v -13.0069 z" style="font-style:normal;font-variant:normal;font-weight:bold;font-stretch:normal;font-size:25.0616px;font-family:'Yandex Sans Text';-inkscape-font-specification:'Yandex Sans Text Bold';fill:#ffffff" id="path11879"></path><path d="m -5816.0123,4115.9154 q 1.203,0 1.9799,-0.802 0.7769,-0.827 0.7769,-2.5061 0,-1.7042 -0.7769,-2.5313 -0.7769,-0.827 -2.0049,-0.827 -1.203,0 -2.03,0.8521 -0.827,0.827 -0.827,2.5062 0,1.654 0.827,2.4811 0.827,0.827 2.055,0.827 z m -0.9022,8.0448 q -1.7292,0 -3.1076,-0.3008 -1.3784,-0.2756 -2.2305,-0.7518 l 0.7769,-3.1077 q 0.6015,0.401 1.7794,0.7519 1.2029,0.3759 2.7818,0.3759 1.8295,0 2.7317,-0.7017 0.9023,-0.7017 0.9023,-2.4059 v -1.1027 q -0.6015,0.9774 -1.5789,1.5538 -0.9774,0.5764 -2.3558,0.6015 -1.1278,0 -2.1553,-0.376 -1.0275,-0.3759 -1.8295,-1.1528 -0.7769,-0.802 -1.2531,-1.9799 -0.4511,-1.1779 -0.4511,-2.7567 0,-1.604 0.4762,-2.7819 0.4761,-1.2029 1.253,-2.0049 0.802,-0.802 1.8295,-1.203 1.0526,-0.4009 2.1804,-0.4009 1.4285,0 2.4059,0.5764 1.0025,0.5513 1.604,1.5789 0.025,-0.4762 0.1002,-1.0276 0.075,-0.5513 0.1504,-0.8771 h 3.6339 q -0.05,0.3508 -0.1002,1.0024 -0.025,0.6516 -0.025,1.0777 v 9.0723 q 0,1.4786 -0.4511,2.6315 -0.4261,1.1779 -1.3533,2.0049 -0.9023,0.827 -2.3308,1.2531 -1.4034,0.4511 -3.3833,0.4511 z" style="font-style:normal;font-variant:normal;font-weight:bold;font-stretch:normal;font-size:25.0616px;font-family:'Yandex Sans Text';-inkscape-font-specification:'Yandex Sans Text Bold';fill:#ffffff" id="path11881"></path><path d="m -5800.4991,4108.9984 q -2.2305,0 -2.7318,2.4811 h 4.9873 q 0.025,-1.228 -0.5764,-1.8546 -0.5764,-0.6265 -1.6791,-0.6265 z m 5.6138,9.5735 q -0.5013,0.3258 -1.203,0.5764 -0.6015,0.2256 -1.5037,0.401 -0.9022,0.1755 -2.1553,0.1755 -3.8595,0 -5.714,-1.7794 -1.8546,-1.7794 -1.8546,-4.9873 0,-1.5788 0.4762,-2.8319 0.5012,-1.2531 1.3784,-2.1052 0.8771,-0.8772 2.1302,-1.3283 1.2531,-0.4761 2.7568,-0.4761 1.5287,0 2.7818,0.5012 1.2531,0.4762 2.0801,1.4536 0.8271,0.9774 1.1529,2.456 0.3258,1.4536 0.025,3.4334 h -8.7465 q 0.2005,1.3283 1.0526,2.005 0.8521,0.6516 2.6565,0.6516 0.9273,0 1.6541,-0.1253 0.7519,-0.1504 1.2531,-0.3509 0.6015,-0.2256 1.0275,-0.5012 z" style="font-style:normal;font-variant:normal;font-weight:bold;font-stretch:normal;font-size:25.0616px;font-family:'Yandex Sans Text';-inkscape-font-specification:'Yandex Sans Text Bold';fill:#ffffff" id="path11883"></path><path d="m -5785.4873,4109.249 q -0.9273,0 -1.629,0.3509 -0.7017,0.3258 -1.1278,0.8521 v 9.0221 h -3.8845 v -13.0069 h 3.659 l 0.1504,1.8295 h 0.05 q 0.5513,-0.8772 1.5287,-1.4787 1.0025,-0.6014 2.5313,-0.6014 0.9272,0 1.7292,0.2756 0.827,0.2507 1.4285,0.7769 0.6015,0.5013 0.9273,1.3033 0.3509,0.7769 0.3509,1.8294 v 9.0723 h -3.8846 v -8.6713 q 0,-0.8521 -0.5012,-1.2029 -0.4762,-0.3509 -1.3283,-0.3509 z" style="font-style:normal;font-variant:normal;font-weight:bold;font-stretch:normal;font-size:25.0616px;font-family:'Yandex Sans Text';-inkscape-font-specification:'Yandex Sans Text Bold';fill:#ffffff" id="path11885"></path><path d="m -5770.4253,4119.7248 q -1.6791,0 -3.0325,-0.4511 -1.3533,-0.4762 -2.3307,-1.3283 -0.9523,-0.8772 -1.4786,-2.1302 -0.5012,-1.2531 -0.5012,-2.8571 0,-1.5788 0.5012,-2.8319 0.5263,-1.2531 1.4536,-2.1052 0.9523,-0.8772 2.2304,-1.3283 1.3032,-0.4761 2.8821,-0.4761 1.5037,0 2.5312,0.3258 1.0526,0.3258 1.6291,0.7267 l -0.7268,2.832 q -0.6516,-0.426 -1.4035,-0.6265 -0.7518,-0.2256 -1.9047,-0.2256 -1.4535,0 -2.3307,0.9273 -0.8521,0.9022 -0.8521,2.7818 0,1.8797 0.9022,2.8069 0.9022,0.9273 2.6064,0.9273 1.0777,0 1.7794,-0.2506 0.7017,-0.2506 1.3032,-0.6015 l 0.7017,2.8821 q -0.5764,0.401 -1.5538,0.7017 -0.9523,0.3008 -2.4059,0.3008 z" style="font-style:normal;font-variant:normal;font-weight:bold;font-stretch:normal;font-size:25.0616px;font-family:'Yandex Sans Text';-inkscape-font-specification:'Yandex Sans Text Bold';fill:#ffffff" id="path11887"></path><path d="m -5758.0449,4108.9984 q -2.2305,0 -2.7317,2.4811 h 4.9873 q 0.025,-1.228 -0.5765,-1.8546 -0.5764,-0.6265 -1.6791,-0.6265 z m 5.6138,9.5735 q -0.5012,0.3258 -1.2029,0.5764 -0.6015,0.2256 -1.5037,0.401 -0.9023,0.1755 -2.1553,0.1755 -3.8595,0 -5.7141,-1.7794 -1.8545,-1.7794 -1.8545,-4.9873 0,-1.5788 0.4761,-2.8319 0.5013,-1.2531 1.3784,-2.1052 0.8772,-0.8772 2.1303,-1.3283 1.253,-0.4761 2.7567,-0.4761 1.5288,0 2.7819,0.5012 1.253,0.4762 2.0801,1.4536 0.827,0.9774 1.1528,2.456 0.3258,1.4536 0.025,3.4334 h -8.7465 q 0.2005,1.3283 1.0526,2.005 0.8521,0.6516 2.6565,0.6516 0.9273,0 1.6541,-0.1253 0.7518,-0.1504 1.253,-0.3509 0.6015,-0.2256 1.0276,-0.5012 z" style="font-style:normal;font-variant:normal;font-weight:bold;font-stretch:normal;font-size:25.0616px;font-family:'Yandex Sans Text';-inkscape-font-specification:'Yandex Sans Text Bold';fill:#ffffff" id="path11889"></path><path d="m -5885.0568,4129.396 v 4.7867 h 2.2305 q 1.6541,0 2.4811,-0.5263 0.827,-0.5263 0.827,-1.8796 0,-1.3283 -0.827,-1.8545 -0.827,-0.5263 -2.5312,-0.5263 z m 1.7794,7.8693 h -1.7794 v 6.8168 h -4.0098 v -17.9441 h 6.1902 q 3.7091,0 5.5135,1.3282 1.8295,1.3283 1.8295,4.3106 0,2.1052 -0.9273,3.3081 -0.9022,1.1779 -2.5061,1.7042 l 4.2605,7.293 h -4.6114 z" style="font-style:normal;font-variant:normal;font-weight:bold;font-stretch:normal;font-size:25.0616px;font-family:'Yandex Sans Text';-inkscape-font-specification:'Yandex Sans Text Bold';fill:#ffffff" id="path11891"></path><path d="m -5867.0626,4133.6063 q -2.2305,0 -2.7317,2.4811 h 4.9872 q 0.025,-1.228 -0.5764,-1.8546 -0.5764,-0.6265 -1.6791,-0.6265 z m 5.6138,9.5735 q -0.5012,0.3258 -1.203,0.5765 -0.6014,0.2255 -1.5037,0.4009 -0.9022,0.1755 -2.1553,0.1755 -3.8594,0 -5.714,-1.7794 -1.8546,-1.7794 -1.8546,-4.9873 0,-1.5788 0.4762,-2.8319 0.5012,-1.2531 1.3784,-2.1052 0.8771,-0.8772 2.1302,-1.3283 1.2531,-0.4761 2.7568,-0.4761 1.5288,0 2.7818,0.5012 1.2531,0.4762 2.0802,1.4536 0.827,0.9774 1.1528,2.456 0.3258,1.4536 0.025,3.4335 h -8.7465 q 0.2004,1.3282 1.0525,2.0049 0.8521,0.6516 2.6566,0.6516 0.9272,0 1.654,-0.1253 0.7519,-0.1504 1.2531,-0.3509 0.6015,-0.2255 1.0275,-0.5012 z" style="font-style:normal;font-variant:normal;font-weight:bold;font-stretch:normal;font-size:25.0616px;font-family:'Yandex Sans Text';-inkscape-font-specification:'Yandex Sans Text Bold';fill:#ffffff" id="path11893"></path><path d="m -5854.181,4144.2575 q -1.9548,0 -3.2079,-0.3759 -1.253,-0.376 -1.8044,-0.802 l 0.6767,-2.8069 q 0.6014,0.4511 1.7041,0.802 1.1028,0.3508 2.5313,0.3508 1.8545,0 1.8545,-1.1779 0,-0.401 -0.2255,-0.6265 -0.2256,-0.2256 -0.6266,-0.3258 -0.3759,-0.1253 -0.8771,-0.1754 -0.5013,-0.05 -1.0526,-0.1253 -0.7268,-0.1003 -1.4285,-0.3258 -0.7017,-0.2507 -1.2782,-0.6767 -0.5513,-0.4511 -0.9022,-1.1528 -0.3508,-0.7018 -0.3508,-1.7544 0,-1.9798 1.3533,-3.0825 1.3533,-1.1027 3.9096,-1.1027 1.5789,0 2.7066,0.2756 1.1529,0.2757 1.6291,0.5514 l -0.777,2.6315 q -0.4761,-0.2757 -1.3533,-0.4512 -0.8771,-0.2004 -2.0049,-0.2004 -1.203,0 -1.6541,0.2506 -0.426,0.2506 -0.426,0.7518 0,0.3759 0.2255,0.5764 0.2506,0.1755 0.6516,0.3008 0.401,0.1002 0.9022,0.1503 0.5263,0.05 1.1028,0.1254 0.6766,0.1002 1.3783,0.3258 0.7018,0.2004 1.2782,0.6516 0.6015,0.426 0.9523,1.1528 0.376,0.7268 0.376,1.8545 0,1.2281 -0.4512,2.0802 -0.4511,0.827 -1.2029,1.3533 -0.7268,0.5263 -1.6791,0.7518 -0.9524,0.2256 -1.9298,0.2256 z" style="font-style:normal;font-variant:normal;font-weight:bold;font-stretch:normal;font-size:25.0616px;font-family:'Yandex Sans Text';-inkscape-font-specification:'Yandex Sans Text Bold';fill:#ffffff" id="path11895"></path><path d="m -5840.6728,4133.6063 q -2.2305,0 -2.7317,2.4811 h 4.9872 q 0.025,-1.228 -0.5764,-1.8546 -0.5764,-0.6265 -1.6791,-0.6265 z m 5.6138,9.5735 q -0.5012,0.3258 -1.203,0.5765 -0.6014,0.2255 -1.5037,0.4009 -0.9022,0.1755 -2.1553,0.1755 -3.8594,0 -5.714,-1.7794 -1.8546,-1.7794 -1.8546,-4.9873 0,-1.5788 0.4762,-2.8319 0.5012,-1.2531 1.3784,-2.1052 0.8772,-0.8772 2.1302,-1.3283 1.2531,-0.4761 2.7568,-0.4761 1.5288,0 2.7818,0.5012 1.2531,0.4762 2.0802,1.4536 0.827,0.9774 1.1528,2.456 0.3258,1.4536 0.025,3.4335 h -8.7465 q 0.2005,1.3282 1.0525,2.0049 0.8521,0.6516 2.6566,0.6516 0.9273,0 1.654,-0.1253 0.7519,-0.1504 1.2531,-0.3509 0.6015,-0.2255 1.0275,-0.5012 z" style="font-style:normal;font-variant:normal;font-weight:bold;font-stretch:normal;font-size:25.0616px;font-family:'Yandex Sans Text';-inkscape-font-specification:'Yandex Sans Text Bold';fill:#ffffff" id="path11897"></path><path d="m -5827.5155,4141.6761 q 0.9523,0 1.5288,-0.4511 0.5764,-0.4761 0.8771,-1.0024 v -1.9047 h -1.2531 q -1.4034,0 -2.055,0.5012 -0.6516,0.4762 -0.6516,1.2782 0,0.7769 0.426,1.1779 0.4261,0.4009 1.1278,0.4009 z m 2.7818,2.406 q -0.05,-0.2757 -0.1253,-0.7018 -0.05,-0.4511 -0.1002,-0.8771 -0.5012,0.7268 -1.4285,1.2781 -0.9022,0.5514 -2.3558,0.5514 -0.802,0 -1.5538,-0.2256 -0.7519,-0.2255 -1.3283,-0.6766 -0.5764,-0.4762 -0.9273,-1.1779 -0.3508,-0.7018 -0.3508,-1.6541 0,-2.0551 1.5538,-3.233 1.5789,-1.1778 4.912,-1.1778 h 1.3283 v -0.3258 q 0,-1.203 -0.6265,-1.604 -0.6266,-0.401 -1.7543,-0.401 -1.1278,0 -2.1303,0.3258 -0.9774,0.3008 -1.8295,0.7268 l -0.7518,-2.9823 q 0.9022,-0.4261 2.2806,-0.7519 1.4034,-0.3508 3.0074,-0.3508 1.3032,0 2.3558,0.2756 1.0526,0.2507 1.8044,0.8271 0.7519,0.5764 1.1528,1.5037 0.401,0.9022 0.401,2.1803 v 6.3657 q 0,0.2255 0,0.5263 0.025,0.2757 0.025,0.5764 0.025,0.3007 0.025,0.5764 0.025,0.2506 0.05,0.4261 z" style="font-style:normal;font-variant:normal;font-weight:bold;font-stretch:normal;font-size:25.0616px;font-family:'Yandex Sans Text';-inkscape-font-specification:'Yandex Sans Text Bold';fill:#ffffff" id="path11899"></path><path d="m -5810.223,4134.7341 q -0.6015,-0.1003 -1.1779,-0.1003 -0.7518,0 -1.6791,0.2757 -0.9022,0.2757 -1.5789,0.9774 v 8.1952 h -3.8845 v -13.007 h 3.6589 l 0.1504,2.5813 h 0.05 q 0.7268,-1.3533 1.8797,-2.055 1.1528,-0.7268 2.5813,-0.7769 z" style="font-style:normal;font-variant:normal;font-weight:bold;font-stretch:normal;font-size:25.0616px;font-family:'Yandex Sans Text';-inkscape-font-specification:'Yandex Sans Text Bold';fill:#ffffff" id="path11901"></path><path d="m -5801.7021,4144.3327 q -1.6791,0 -3.0325,-0.4511 -1.3533,-0.4762 -2.3307,-1.3283 -0.9523,-0.8772 -1.4786,-2.1302 -0.5013,-1.2531 -0.5013,-2.8571 0,-1.5788 0.5013,-2.8319 0.5263,-1.2531 1.4535,-2.1052 0.9524,-0.8772 2.2305,-1.3283 1.3032,-0.4761 2.8821,-0.4761 1.5037,0 2.5312,0.3258 1.0526,0.3258 1.629,0.7268 l -0.7267,2.8319 q -0.6516,-0.426 -1.4035,-0.6265 -0.7518,-0.2256 -1.9047,-0.2256 -1.4535,0 -2.3307,0.9273 -0.8521,0.9022 -0.8521,2.7818 0,1.8797 0.9022,2.8069 0.9022,0.9273 2.6064,0.9273 1.0777,0 1.7794,-0.2506 0.7017,-0.2506 1.3032,-0.6015 l 0.7017,2.8821 q -0.5764,0.401 -1.5538,0.7017 -0.9523,0.3008 -2.4059,0.3008 z" style="font-style:normal;font-variant:normal;font-weight:bold;font-stretch:normal;font-size:25.0616px;font-family:'Yandex Sans Text';-inkscape-font-specification:'Yandex Sans Text Bold';fill:#ffffff" id="path11903"></path><path d="m -5788.8205,4133.8569 q -0.9272,0 -1.629,0.3509 -0.7017,0.3258 -1.1277,0.8521 v 9.0222 h -3.8846 v -17.9441 h 3.8846 v 4.5612 l -0.025,2.2304 h 0.025 q 0.5764,-0.8771 1.5287,-1.4786 0.9774,-0.6265 2.5062,-0.6265 0.9273,0 1.7292,0.2756 0.8271,0.2507 1.4285,0.777 0.6015,0.5012 0.9273,1.3032 0.3509,0.7769 0.3509,1.8295 v 9.0723 h -3.8846 v -8.6714 q 0,-0.8521 -0.5012,-1.2029 -0.4762,-0.3509 -1.3283,-0.3509 z" style="font-style:normal;font-variant:normal;font-weight:bold;font-stretch:normal;font-size:25.0616px;font-family:'Yandex Sans Text';-inkscape-font-specification:'Yandex Sans Text Bold';fill:#ffffff" id="path11905"></path></g></g></svg> 